<?xml version="1.0" standalone="no"?>
<!DOCTYPE svg PUBLIC "-//W3C//DTD SVG 1.1//EN" "http://www.w3.org/Graphics/SVG/1.1/DTD/svg11.dtd" >
<svg>
<metadata>
Created by FontForge 20090914 at Mon Nov 21 05:32:25 2016
 By www-data
Copyright 1992 Image Club Graphics, Inc.
</metadata>
<defs>
<font id="CopperplateGothicLight" horiz-adv-x="1482" >
  <font-face 
    font-family="Copperplate"
    font-weight="5"
    font-stretch="normal"
    units-per-em="1457"
    panose-1="0 0 0 0 0 0 0 0 0 0"
    ascent="1165"
    descent="-292"
    x-height="1207"
    cap-height="1207"
    bbox="-125 -397 2301 1609"
    underline-thickness="20"
    underline-position="-101"
    unicode-range="U+0020-U+25CA"
  />
<missing-glyph horiz-adv-x="1207" 
d="M75 0v1207h1057v-1207h-1057zM1057 75v1057h-907v-1057h907z" />
    <glyph glyph-name=".notdef" horiz-adv-x="1207" 
d="M75 0v1207h1057v-1207h-1057zM1057 75v1057h-907v-1057h907z" />
    <glyph glyph-name="space" unicode=" " horiz-adv-x="504" 
 />
    <glyph glyph-name="exclam" unicode="!" horiz-adv-x="375" 
d="M337 1177h-52l-42 -816h52v-30h-191v30h52l-55 816h-52v30h288v-30zM305 92c0 -28.667 -10.167 -53.167 -30.5 -73.5s-44.833 -30.5 -73.5 -30.5s-53.167 10.167 -73.5 30.5s-30.5 44.833 -30.5 73.5s10.167 53.167 30.5 73.5s44.833 30.5 73.5 30.5
s53.167 -10.167 73.5 -30.5s30.5 -44.833 30.5 -73.5z" />
    <glyph glyph-name="quotedbl" unicode="&#x22;" horiz-adv-x="531" 
d="M491 1207l-20 -320h-132l-20 320h172zM215 1207l-20 -320h-132l-20 320h172z" />
    <glyph glyph-name="numbersign" unicode="#" horiz-adv-x="1029" 
d="M984 532h-266v-264h-84v264h-240v-264h-84v264h-266v84h267v240h-267v84h267v268h84v-268h239v268h84v-268h266v-84h-266v-240h266v-84zM634 616v240h-239v-240h239z" />
    <glyph glyph-name="dollar" unicode="$" horiz-adv-x="1220" 
d="M1190 1123l-121.002 -217.999l-26 15l26 46c-15.333 14 -38.166 30.5 -68.499 49.5s-54.5 31.833 -72.5 38.5c-32.667 12 -55 20 -67 24c-22.667 7.33301 -45.667 12.666 -69 15.999v-430c74.667 -10 124.667 -19 150 -27c52.667 -16.667 99 -45.667 139 -87
c26.667 -26.667 45.5 -55 56.5 -85s16.5 -64 16.5 -102c0 -14 -0.333008 -24.833 -1 -32.5s-2 -20.5 -4 -38.5c-10 -77.333 -53 -144 -129 -200c-68 -50 -144 -80 -228 -90v-110h-86v96h-78c-8.66699 0 -21 0.666992 -37 2s-29 2 -39 2v-100h-84v112l-69 17
c-24.667 6 -48.667 13.833 -72 23.5s-46.666 20.5 -69.999 32.5l-64 35l-97 53l-30 -49l-26 14l120 217l26 -14l-25 -46c22 -24.667 73.667 -57 155 -97c52 -24.667 102.667 -44 152 -58v432l-135 28c-56 14.667 -102.667 38.667 -140 72c-24 22 -42.5 49.667 -55.5 83
s-19.5 67.333 -19.5 102c0 20.667 2.66699 42.334 8 65.001c18.667 70.667 55.667 129.334 111 176.001c50 41.333 127 76.666 231 105.999v120h84v-104c13.333 2.66699 27 4.66699 41 6s28.333 2 43 2c24 0 48 -1.33301 72 -4v100h84v-104
c38.667 -4.66699 75.667 -11.834 111 -21.501s65 -19.5 89 -29.5s51.667 -23.667 83 -41l61 -33l27 50zM707.998 678.001l-0.00195312 424c-7.33301 0 -18.166 0.333008 -32.499 1s-26.166 1 -35.499 1h-28.5c-7.66699 0 -27.5 -2 -59.5 -6v-406zM467.996 704.001v372
c-38.667 -4 -78.667 -25 -120 -63c-52 -47.333 -78 -102.333 -78 -165c0 -46 24 -82.667 72 -110c39.333 -22.667 81.333 -34 126 -34zM1001 308.001c2.66699 14 3.99902 28.668 3.99902 44.001c0 44.667 -14.667 81 -44 109c-36.667 35.333 -93 57.666 -169 66.999v-400
c46.667 8.66699 89.334 27.667 128.001 57c45.333 34.667 72.333 75.667 81 123zM707.995 116.002v424l-156 16v-436c19.333 -3.33301 33.5 -5.5 42.5 -6.5s21.5 -1.5 37.5 -1.5c9.33301 0 22 0.666992 38 2s28.667 2 38 2z" />
    <glyph glyph-name="percent" unicode="%" horiz-adv-x="1294" 
d="M665 903c0 -86 -29.334 -160.001 -88.001 -222.001s-131 -93 -217 -93c-99.333 0 -177.666 32.667 -234.999 98c-52 58.667 -78 131.667 -78 219c0 86.667 26 159.334 78 218.001c57.333 64.667 135 97 233 97c94 0 170 -33.333 228 -100c52.667 -60.667 79 -133 79 -217
zM1173 1177h-52l-850 -1147h36v-30h-186v30h52l846 1147h-39v30h193v-30zM1253 300.999c0 -86 -29.334 -160.001 -88.001 -222.001s-131 -93 -217 -93c-99.333 0 -177.666 32.667 -234.999 98c-52 58.667 -78 131.667 -78 219c0 86.667 26 159.334 78 218.001
c57.333 64.667 135 97 233 97c94 0 170 -33.333 228 -100c52.667 -60.667 79 -133 79 -217zM573.998 901.998c0 67.333 -18.666 123.667 -55.999 169c-40.667 49.333 -94 74 -160 74c-72 0 -128.333 -23 -169 -69c-38 -43.333 -57 -100.333 -57 -171
c0 -68 20.833 -125.5 62.5 -172.5s97.5 -70.5 167.5 -70.5c65.333 0 117.666 24.333 156.999 73c36.667 45.333 55 101 55 167zM1162 299.999c0 67.333 -18.666 123.667 -55.999 169c-40.667 49.333 -94 74 -160 74c-72 0 -128.333 -23 -169 -69
c-38 -43.333 -57 -100.333 -57 -171c0 -68 20.833 -125.5 62.5 -172.5s97.5 -70.5 167.5 -70.5c65.333 0 117.666 24.333 156.999 73c36.667 45.333 55 101 55 167z" />
    <glyph glyph-name="ampersand" unicode="&#x26;" horiz-adv-x="1284" 
d="M1239 -4c-16 -2.66699 -32.6689 -4.00098 -50.002 -4.00098c-64 0 -122.333 18.667 -175 56c-58 41.333 -98 88.666 -120 141.999l-51 -54c-44.667 -48 -97.167 -85 -157.5 -111s-127.166 -39 -200.499 -39c-144 0 -256.333 41.667 -337 125c-70 72 -105 159 -105 261
c0 77.333 29.333 148 88 212c54 58.667 117.333 96.667 190 114c-89.333 55.333 -134 132 -134 230c0 88.667 38.667 161 116 217c71.333 51.333 154.666 77 249.999 77c102 0 187.833 -28.5 257.5 -85.5s104.5 -129.833 104.5 -218.5c0 -66 -21 -122 -63 -168
c-30.667 -34 -69.667 -60 -117 -78c36.667 -16 71.334 -40 104.001 -72c14.667 -13.333 28.334 -29.333 41.001 -48c10.667 -16 20 -32.667 28 -50c1.33301 6 9.66602 23 24.999 51c40 72.667 79 126 117 160c30.667 28 64.334 50 101.001 66c22 10 51.333 18.333 88 25
v-242h-30v54c-10.667 -1.33301 -19.334 -3 -26.001 -5c-16 -4.66699 -32.333 -12.667 -49 -24c-26.667 -18 -60.667 -64.333 -102 -139c-36 -65.333 -54 -101.666 -54 -108.999c22.667 -41.333 41.667 -72.333 57 -93c46.667 -62 91.667 -93 135 -93
c6.66699 0 11.667 0.333008 15 1c4.66699 0.666992 9.33398 2.83398 14.001 6.50098s8 6.16699 10 7.5v38h30v-210zM760.998 917.999c0 53.333 -21.999 97 -65.999 131c-40.667 31.333 -90 47 -148 47c-56 0 -104.167 -15 -144.5 -45s-60.5 -69 -60.5 -117
c-0.666992 -7.33301 -1 -13 -1 -17c0 -52 19.167 -93.667 57.5 -125s84.166 -47 137.499 -47c60 0 111.333 15 154 45c47.333 33.333 71 76 71 128zM814.999 342.999c-8 56.667 -36.002 111.333 -84.002 164c-61.333 67.333 -136.666 101 -225.999 101
c-84 0 -154.667 -21 -212 -63c-60.667 -44.667 -91 -102.667 -91 -174c0 -72 25.833 -131.167 77.5 -177.5s118.834 -69.5 201.501 -69.5c74.667 0 144.5 22.5 209.5 67.5s106.5 95.5 124.5 151.5z" />
    <glyph glyph-name="quotesingle" unicode="'" horiz-adv-x="256" 
d="M215 1207l-20 -320h-132l-20 320h172z" />
    <glyph glyph-name="parenleft" unicode="(" horiz-adv-x="469" 
d="M452 -127h-173.998c-76.667 110 -133.334 219.333 -170.001 328c-41.333 122 -62 253.667 -62 395c0 142 19.667 275.667 59 401c36 114.667 89.333 224.667 160 330h174v-30h-52c-74.667 -113.333 -128.334 -228.333 -161.001 -345
c-30 -106.667 -45 -225.334 -45 -356.001c0 -126 18.5 -246.667 55.5 -362s91.5 -225.666 163.5 -330.999h52v-30z" />
    <glyph glyph-name="parenright" unicode=")" horiz-adv-x="469" 
d="M425 596c0 -140.667 -20.667 -272 -62 -394c-37.333 -110 -94 -219.667 -170 -329h-174v30h52c72 106 126.5 216.167 163.5 330.5s55.5 235.166 55.5 362.499c0 132.667 -14.667 251.334 -44 356.001c-32 114 -86 229 -162 345h-52v30h174
c70.667 -105.333 124 -215 160 -329c39.333 -124.667 59 -258.667 59 -402z" />
    <glyph glyph-name="asterisk" unicode="*" horiz-adv-x="573" 
d="M515 975l-189 -34l130 -143l-85 -57l-82 175l-98 -174l-80 66l152 136l-204 39l34 91l179 -91l-31 194h97l-25 -192l177 89z" />
    <glyph glyph-name="plus" unicode="+" horiz-adv-x="933" 
d="M890 385h-379v-385h-94v386h-377v95h375v382h93v-382h382v-96z" />
    <glyph glyph-name="comma" unicode="," horiz-adv-x="297" 
d="M260 59c0 -61.333 -19.001 -117.334 -57.001 -168.001c-12.667 -16.667 -31.667 -35.667 -57 -57l-35 27c12 14.667 20.667 26.334 26 35.001c18 27.333 27 50 27 68c0 12.667 -9.16699 21 -27.5 25s-30.5 7.66699 -36.5 11c-17.333 10.667 -30.666 23.5 -39.999 38.5
s-14 32.167 -14 51.5c0 30.667 10.333 56 31 76s44.667 30 72 30c34 0 61 -12.333 81 -37s30 -58 30 -100z" />
    <glyph glyph-name="hyphen" unicode="-" horiz-adv-x="629" 
d="M593 508h-554v143h554v-143z" />
    <glyph glyph-name="period" unicode="." horiz-adv-x="285" 
d="M251 92c0 -28.667 -10.167 -53.167 -30.5 -73.5s-44.833 -30.5 -73.5 -30.5s-53.167 10.167 -73.5 30.5s-30.5 44.833 -30.5 73.5s10.167 53.167 30.5 73.5s44.833 30.5 73.5 30.5s53.167 -10.167 73.5 -30.5s30.5 -44.833 30.5 -73.5z" />
    <glyph glyph-name="slash" unicode="/" horiz-adv-x="969" 
d="M914 1177h-52l-672 -1147h36v-30h-186v30h52l668 1147h-39v30h193v-30z" />
    <glyph glyph-name="zero" unicode="0" horiz-adv-x="1304" 
d="M1259 599c0 -178.667 -58.999 -326.667 -176.999 -444c-114 -113.333 -252.667 -170 -416 -170c-184.667 0 -334.667 60 -450 180c-112.667 117.333 -169 267 -169 449c0 174.667 58 319.667 174 435s258 173 426 173c187.333 0 337.666 -61.333 450.999 -184
c107.333 -116.667 161 -263 161 -439zM1093 604c0 134.667 -37.667 247.667 -113 339c-81.333 98.667 -189.666 148 -324.999 148c-134.667 0 -242.834 -45.167 -324.501 -135.5s-122.5 -204.833 -122.5 -343.5c0 -132 42.333 -246.667 127 -344
c88 -101.333 197.333 -152 328 -152c128.667 0 232.5 45.833 311.5 137.5s118.5 208.5 118.5 350.5z" />
    <glyph glyph-name="one" unicode="1" horiz-adv-x="474" 
d="M437 0l-248.002 0.000976562v30h52v954c-12.667 -10.667 -25.167 -19.334 -37.5 -26.001s-26.166 -12.5 -41.499 -17.5s-28.666 -8.33301 -39.999 -10s-27 -2.5 -47 -2.5v-52h-30v231h30v-52c36 0 70 10 102 30c15.333 10 28 19.667 38 29s17 20 21 32
c1.33301 4 2.33301 8.83301 3 14.5l2 16.5h-52v30h248v-30h-52v-1147h52v-30z" />
    <glyph glyph-name="two" unicode="2" horiz-adv-x="1076" 
d="M1033 -52l-30.002 -0.00195312v52l-928 -1l-14 -52h-16c0 54 4.5 100.833 13.5 140.5s24.833 79.834 47.5 120.501c38 67.333 87.333 127 148 179c63.333 54.667 144.333 105 243 151c70.667 34 124.334 62.667 161.001 86c53.333 34 93.666 69 120.999 105
c32 42 48 87.667 48 137c0 61.333 -25.667 113 -77 155c-54.667 44.667 -125.667 67 -213 67c-54 0 -110.667 -17.667 -170 -53c-47.333 -28 -91.333 -63.667 -132 -107c-35.333 -37.333 -55.666 -65 -60.999 -83l34 -40l-23 -20l-160 191l23 19l33 -38
c11.333 20 33 47 65 81c47.333 50 99 90.333 155 121c76 42 153.333 63 232 63c128 0 234 -32.167 318 -96.5s126 -150.166 126 -257.499c0 -67.333 -18.333 -129.333 -55 -186c-30 -46.667 -74.667 -91.334 -134 -134.001c-46 -33.333 -101 -65.333 -165 -96l-127 -62
c-48.667 -25.333 -86 -46.666 -112 -63.999c-32.667 -22 -60.167 -45.833 -82.5 -71.5s-38.166 -47.167 -47.499 -64.5c-8 -26 -13 -41.333 -15 -46h764v52h30v-248z" />
    <glyph glyph-name="three" unicode="3" horiz-adv-x="1160" 
d="M1115 296c-24 -105.333 -84.332 -184.665 -180.999 -237.998c-87.333 -48 -198.333 -72 -333 -72c-84.667 0 -171.667 14 -261 42c-63.333 20 -126.333 46.333 -189 79l-73 43l-25 -43l-27 14l121 217l26 -14l-26 -46c34 -38 99 -76 195 -114c84 -33.333 167 -50 249 -50
c110 0 200.5 20.833 271.5 62.5s106.5 96.167 106.5 163.5c0 78.667 -26.833 139.167 -80.5 181.5s-127.834 63.5 -222.501 63.5h-213v-52h-30v224h30v-52h210c60.667 0 113.667 12.667 159 38c58 32.667 87 79.667 87 141v25c-2 8 -3.33301 13.667 -4 17
c-12 60.667 -50.667 106.667 -116 138c-52.667 25.333 -113.334 38 -182.001 38c-72.667 0 -141 -13.333 -205 -40c-50.667 -20.667 -97 -49.334 -139 -86.001c-32 -27.333 -55 -53 -69 -77l34 -40l-23 -20l-160 191l23 19l33 -38c14.667 17.333 40 39 76 65
c56.667 40.667 116.334 73 179.001 97c86 32.667 175 49 267 49c104.667 0 194 -20.333 268 -61c81.333 -44.667 135.333 -109.667 162 -195c6.66699 -20.667 10 -43 10 -67c0 -32.667 -6.33301 -64.334 -19 -95.001s-29.667 -56.667 -51 -78
c-14.667 -14.667 -30.5 -28.167 -47.5 -40.5s-31.833 -21.5 -44.5 -27.5c40.667 -11.333 80 -32.666 118 -63.999c26 -21.333 48.333 -48.333 67 -81c24.667 -44 37 -91.667 37 -143c0 -18.667 -0.5 -31.834 -1.5 -39.501s-3.16699 -19.167 -6.5 -34.5z" />
    <glyph glyph-name="four" unicode="4" horiz-adv-x="1199" 
d="M1161 190h-30v52h-193v-212h52v-30h-248v30h52v212h-720v-52h-30v165l711 822h-52v30h287v-30h-52v-791h193v52h30v-248zM794 386v634l-538 -634h538z" />
    <glyph glyph-name="five" unicode="5" horiz-adv-x="1159" 
d="M1100 298c-32 -102 -96.335 -180.334 -193.002 -235.001c-90.667 -51.333 -201 -77 -331 -77c-94.667 0 -186 16 -274 48c-64 23.333 -122.667 53.333 -176 90c-26 18 -46.667 34.667 -62 50l-35 -40l-23 18l156 194l23 -19l-34 -43
c9.33301 -11.333 28 -27.666 56 -48.999c46 -34.667 95.333 -62.334 148 -83.001c73.333 -28.667 149.666 -43 228.999 -43c103.333 0 189.333 23.333 258 70c62 42 100 95 114 159c5.33301 24 8 49.333 8 76c0 91.333 -39 164 -117 218
c-67.333 46.667 -143.666 70 -228.999 70c-100.667 0 -184.667 -16.333 -252 -49c-41.333 -20 -77 -47 -107 -81l32 -24l-18 -25l-225 165l18 23l28 -19v485h-52v30h958v52h30v-248h-30v52h-762v-345c38.667 30 92 55.333 160 76c74 22.667 147.333 34 220 34
c124.667 0 227.334 -22.333 308.001 -67c68.667 -38 119.334 -90.667 152.001 -158c26.667 -55.333 40 -116.666 40 -183.999c0 -22 -1.5 -42.833 -4.5 -62.5s-7.5 -39.167 -13.5 -58.5z" />
    <glyph glyph-name="six" unicode="6" horiz-adv-x="1137" 
d="M1098 400c0 -120 -50.333 -219.999 -151 -299.999c-95.333 -76 -207.666 -114 -336.999 -114c-188 0 -331.667 61.333 -431 184c-90 111.333 -135 260 -135 446c0 170 55.833 313.167 167.5 429.5s249.834 174.5 414.501 174.5c81.333 0 156.666 -11 225.999 -33
c52 -16.667 98 -37.667 138 -63c8.66699 -5.33301 27 -19.333 55 -42l26 43l26 -14l-124 -216l-26 16l26 45c-39.333 39.333 -89.333 71.166 -150 95.499s-125.667 36.5 -195 36.5c-92.667 0 -176.334 -28.667 -251.001 -86c-65.333 -50 -111 -110.667 -137 -182
c-14 -38 -24 -70.167 -30 -96.5s-9 -54.833 -9 -85.5c0 -15.333 1 -32.666 3 -51.999c14 22.667 28.333 42 43 58c36.667 40 80.334 73 131.001 99c69.333 35.333 146.666 53 231.999 53c130 0 242.667 -36.333 338 -109c100 -76.667 150 -172.334 150 -287.001z
M936 384.001c0 81.333 -32.332 148.5 -96.999 201.5s-141 79.5 -229 79.5c-92.667 0 -173.667 -26.333 -243 -79c-72.667 -55.333 -109 -121.333 -109 -198c0 -80.667 37 -147.667 111 -201c69.333 -50 149.666 -75 240.999 -75c85.333 0 160.333 25.667 225 77
c67.333 53.333 101 118.333 101 195z" />
    <glyph glyph-name="seven" unicode="7" horiz-adv-x="1173" 
d="M1129 1090l-589 -1060h51v-30h-291v30h54l585 1033h-864v-52h-30v248h30v-52h1024v52h30v-169z" />
    <glyph glyph-name="eight" unicode="8" horiz-adv-x="1189" 
d="M1148 350c0 -124.667 -44.334 -216.498 -133.001 -275.498s-228.334 -88.5 -419.001 -88.5c-188.667 0 -328.167 29.333 -418.5 88s-135.5 152 -135.5 280c0 59.333 21.667 119.666 65 180.999c38.667 54.667 80.334 92.334 125.001 113.001
c-58.667 35.333 -95 60.666 -109 75.999c-35.333 39.333 -53 95.333 -53 168c0 111.333 53.333 195.666 160 252.999c92.667 50 214 75 364 75c148.667 0 266.334 -23.333 353.001 -70c103.333 -55.333 155 -140.666 155 -255.999c0 -56 -8.33301 -101.667 -25 -137
c-19.333 -40.667 -60.333 -79.667 -123 -117c46.667 -14.667 89 -46.334 127 -95.001c44.667 -57.333 67 -122.333 67 -195zM935.999 892.002c0 69.333 -30.333 120.332 -91 152.999c-56 30 -139 45 -249 45c-112 0 -197 -13.667 -255 -41
c-69.333 -32.667 -104 -85 -104 -157c0 -67.333 34 -116.666 102 -147.999c60.667 -28 147 -42 259 -42s195 14 249 42c59.333 30.667 89 80 89 148zM979.999 350.001c0 86 -41.333 147.665 -124 184.998c-63.333 28.667 -149.333 43 -258 43
c-107.333 0 -194 -14.333 -260 -43c-86.667 -37.333 -130 -97.666 -130 -180.999c0 -87.333 41.333 -150 124 -188c64 -29.333 152.667 -44 266 -44c107.333 0 195 17.333 263 52c79.333 40.667 119 99.334 119 176.001z" />
    <glyph glyph-name="nine" unicode="9" horiz-adv-x="1142" 
d="M1098 591c0 -170 -56 -313.333 -168 -430s-250 -175 -414 -175c-81.333 0 -156.333 11 -225 33c-49.333 16 -95.333 37.667 -138 65c-10.667 6.66699 -29 20.334 -55 41.001l-26 -43l-26 15l124 215l26 -15l-27 -45c35.333 -37.333 85 -68.833 149 -94.5
s129.333 -38.5 196 -38.5c93.333 0 177.333 28.667 252 86c66 50.667 111.333 111.334 136 182.001c14.667 41.333 25 84.333 31 129c4 29.333 6 58 6 86v14c0 1.33301 -0.333008 3 -1 5l-37 -54c-34.667 -41.333 -76 -75 -124 -101c-68 -36.667 -144.667 -55 -230 -55
c-134.667 0 -251.334 38.333 -350.001 115c-102 79.333 -153 177 -153 293c0 119.333 52.667 217.666 158 294.999c97.333 71.333 212.333 107 345 107c188.667 0 330.334 -61.333 425.001 -184c84 -108.667 126 -257.334 126 -446.001zM884 819
c0 82.667 -32.001 149.333 -96.001 200s-144.333 76 -241 76c-87.333 0 -164.666 -24.667 -231.999 -74c-72.667 -53.333 -109 -119.333 -109 -198c0 -80 35.333 -147.333 106 -202c68 -52.667 146.333 -79 235 -79c92 0 171.167 26.667 237.5 80s99.5 119 99.5 197z" />
    <glyph glyph-name="colon" unicode=":" horiz-adv-x="289" 
d="M251 656c0 -28.667 -10.167 -53.167 -30.5 -73.5s-44.833 -30.5 -73.5 -30.5s-53.167 10.167 -73.5 30.5s-30.5 44.833 -30.5 73.5s10.167 53.167 30.5 73.5s44.833 30.5 73.5 30.5s53.167 -10.167 73.5 -30.5s30.5 -44.833 30.5 -73.5zM251 92
c0 -28.667 -10.167 -53.167 -30.5 -73.5s-44.833 -30.5 -73.5 -30.5s-53.167 10.167 -73.5 30.5s-30.5 44.833 -30.5 73.5s10.167 53.167 30.5 73.5s44.833 30.5 73.5 30.5s53.167 -10.167 73.5 -30.5s30.5 -44.833 30.5 -73.5z" />
    <glyph glyph-name="semicolon" unicode=";" horiz-adv-x="297" 
d="M251 656c0 -28.667 -10.167 -53.167 -30.5 -73.5s-44.833 -30.5 -73.5 -30.5s-53.167 10.167 -73.5 30.5s-30.5 44.833 -30.5 73.5s10.167 53.167 30.5 73.5s44.833 30.5 73.5 30.5s53.167 -10.167 73.5 -30.5s30.5 -44.833 30.5 -73.5zM260 59
c0 -61.333 -19.001 -117.334 -57.001 -168.001c-12.667 -16.667 -31.667 -35.667 -57 -57l-35 27c12 14.667 20.667 26.334 26 35.001c18 27.333 27 50 27 68c0 12.667 -9.16699 21 -27.5 25s-30.5 7.66699 -36.5 11c-17.333 10.667 -30.666 23.5 -39.999 38.5
s-14 32.167 -14 51.5c0 30.667 10.333 56 31 76s44.667 30 72 30c34 0 61 -12.333 81 -37s30 -58 30 -100z" />
    <glyph glyph-name="less" unicode="&#x3c;" horiz-adv-x="746" 
d="M701 29l-656 287v96l656 287v-94l-551 -241l551 -240v-95z" />
    <glyph glyph-name="equal" unicode="=" horiz-adv-x="746" 
d="M701 444h-656v88h656v-88zM701 197h-656v87h656v-87z" />
    <glyph glyph-name="greater" unicode="&#x3e;" horiz-adv-x="746" 
d="M701 316l-656 -287v95l551 240l-551 241v94l656 -287v-96z" />
    <glyph glyph-name="question" unicode="?" horiz-adv-x="801" 
d="M758 927c0 -42 -15 -88.668 -45 -140.001c-21.333 -36 -52 -77 -92 -123l-76 -86c-12.667 -16.667 -22 -34.5 -28 -53.5s-9 -51.167 -9 -96.5v-66h48v-30h-234v30h52v67c0 40 2.83301 72.5 8.5 97.5s14.834 48.167 27.501 69.5c20 34.667 58.333 86.334 115 155.001
c42 50.667 69.333 98.667 82 144c4.66699 16 7 32.333 7 49c0 44.667 -18.333 81.667 -55 111c-34 26.667 -73.667 40 -119 40c-10.667 0 -21.667 -1 -33 -3c-49.333 -8.66699 -95.333 -27.667 -138 -57c-56.667 -39.333 -87.334 -70 -92.001 -92l42 -43l-22 -21l-172 179
l22 20l40 -43c29.333 44 78.5 86.167 147.5 126.5s137.833 60.5 206.5 60.5c95.333 0 172 -25.833 230 -77.5s87 -124.167 87 -217.5zM539 91.999c0 -28.667 -10.167 -53.167 -30.5 -73.5s-44.833 -30.5 -73.5 -30.5s-53.167 10.167 -73.5 30.5s-30.5 44.833 -30.5 73.5
s10.167 53.167 30.5 73.5s44.833 30.5 73.5 30.5s53.167 -10.167 73.5 -30.5s30.5 -44.833 30.5 -73.5z" />
    <glyph glyph-name="at" unicode="@" horiz-adv-x="1107" 
d="M1107 328c-20.667 -45.333 -50.999 -90 -90.999 -134c-50.667 -55.333 -109 -99.666 -175 -132.999c-81.333 -40.667 -169.333 -61 -264 -61c-162 0 -299.333 58.667 -412 176c-110 114 -165 249.667 -165 407c0 152 53 285.333 159 400c112.667 122 252 183 418 183
c158 0 285 -47.333 381 -142c92.667 -91.333 139 -207.666 139 -348.999c0 -122 -36 -224 -108 -306c-66.667 -76 -143.667 -114 -231 -114c-33.333 0 -64.833 13.833 -94.5 41.5s-48.167 59.5 -55.5 95.5c-20.667 -36 -42.334 -64.667 -65.001 -86
c-36 -34 -75.333 -51 -118 -51c-58 0 -107.667 25.667 -149 77s-62 113.666 -62 186.999c0 107.333 33.667 199.666 101 276.999s147.333 116 240 116c36 0 65.667 -9.83301 89 -29.5s39 -47.167 47 -82.5l24 99h156l-118 -474c-2.66699 -10 -5.16699 -20.5 -7.5 -31.5
s-3.5 -20.833 -3.5 -29.5c0 -13.333 2.33301 -23.833 7 -31.5s13.334 -11.5 26.001 -11.5c59.333 0 115.333 31.667 168 95c59.333 70.667 89 157 89 259c0 126.667 -41 229.667 -123 309s-192.667 119 -332 119c-136.667 0 -255.334 -49.333 -356.001 -148
c-103.333 -101.333 -155 -225.333 -155 -372c0 -142 50 -263.667 150 -365s220.333 -152 361 -152c98 0 187.5 24.167 268.5 72.5s143.5 111.5 187.5 189.5h74zM659.001 734c0 26 -7.66699 52 -23 78c-18 30.667 -39 46 -63 46c-56.667 0 -104.667 -38.5 -144 -115.5
s-59 -170.5 -59 -280.5c0 -37.333 5 -68 15 -92c14 -32.667 36.333 -49 67 -49c48.667 0 96 50 142 150c43.333 94 65 181.667 65 263z" />
    <glyph glyph-name="A" unicode="A" horiz-adv-x="1337" 
d="M1313 0h-273v30h50l-132 308h-583l-136 -308h47v-30h-253v30h52l508 1147h-52v30h256v-30h-52l516 -1147h52v-30zM898 468l-231 570l-242 -570h473z" />
    <glyph glyph-name="B" unicode="B" horiz-adv-x="1223" 
d="M1116 526c20.667 -24.667 35.835 -52.832 45.502 -84.499s14.5 -65.167 14.5 -100.5c0 -48 -8 -93 -24 -135s-38 -76 -66 -102c-44 -40 -92.167 -67.333 -144.5 -82s-120.833 -22 -205.5 -22h-696v30h52v1147h-52v30h704c60.667 0 103 -2 127 -6
c39.333 -6.66699 78.333 -21.667 117 -45c48 -28.667 85.167 -67 111.5 -115s39.5 -98.667 39.5 -152c0 -55.333 -13.667 -107 -41 -155c-15.333 -26.667 -39 -52.334 -71 -77.001c-30.667 -20 -46.334 -30.333 -47.001 -31c17.333 -6.66699 31.666 -13 42.999 -19
c33.333 -19.333 64.333 -46.333 93 -81zM931.001 1025c-21.333 16.667 -42.833 27.167 -64.5 31.5s-51.167 6.5 -88.5 6.5h-37h-505v-368h524c36.667 0 68 3 94 9s49.5 17.333 70.5 34s37.167 38.5 48.5 65.5s17 55.5 17 85.5c0 26.667 -4.83301 52 -14.5 76
s-24.5 44 -44.5 60zM960.001 208.002c18 22.667 31.499 46.667 40.499 72s13.5 49 13.5 71c0 27.333 -5.5 52.833 -16.5 76.5s-25.5 44.5 -43.5 62.5c-22 21.333 -50.167 37 -84.5 47s-70.166 15 -107.499 15h-526v-408h506c51.333 0 93.333 4 126 12
c42 10 72.667 27.333 92 52z" />
    <glyph glyph-name="C" unicode="C" horiz-adv-x="1392" 
d="M1365 202l-24.002 -17.999l-32 39l-69 -61c-60.667 -46.667 -127 -84.667 -199 -114c-101.333 -41.333 -206 -62 -314 -62c-215.333 0 -385.333 60.667 -510 182c-116 113.333 -174 258.666 -174 435.999s70.333 325.333 211 444c135.333 114.667 298.333 172 489 172
c90 0 178.667 -12.667 266 -38c64.667 -18.667 124.334 -42.667 179.001 -72c24 -12.667 47.333 -27 70 -43l26 42l26 -15l-127 -213l-26 16l27 45c-21.333 18 -43.333 34 -66 48c-44.667 27.333 -93.667 49 -147 65c-72.667 22 -150 33 -232 33
c-147.333 0 -273.333 -44.333 -378 -133c-108 -91.333 -162 -205.666 -162 -342.999c0 -146 51.333 -264.667 154 -356c100.667 -89.333 229.334 -134 386.001 -134c90.667 0 176.334 17.667 257.001 53c60 26 114.667 60 164 102
c25.333 21.333 45.666 41.666 60.999 60.999l-33 41l24 19z" />
    <glyph glyph-name="D" unicode="D" horiz-adv-x="1321" 
d="M1277 610c0 -80.667 -11.834 -157.335 -35.501 -230.002s-59.167 -136 -106.5 -190c-61.333 -71.333 -131.333 -121.666 -210 -150.999c-70 -26 -157.333 -39 -262 -39h-624v30h52v1147h-52v30h670c96.667 0 174.834 -9.66699 234.501 -29s117.5 -54.666 173.5 -105.999
c51.333 -46 91.333 -111.667 120 -197c26.667 -80 40 -168.333 40 -265zM1120 614.999c0 68 -9.33301 131.833 -28 191.5s-43.667 108.167 -75 145.5c-34.667 40.667 -80 70 -136 88c-48 15.333 -107.333 23 -178 23h-468v-919h434c90.667 0 164.5 12 221.5 36
s103.833 63.333 140.5 118c30 46 52.333 96.167 67 150.5s22 109.833 22 166.5z" />
    <glyph glyph-name="E" unicode="E" horiz-adv-x="1139" 
d="M1101 -52h-30v52h-1022v30h52v1147h-52v30h1022v52h30v-248h-30v52h-826v-368h560v52h30v-248h-30v52h-560v-407h826v52h30v-248z" />
    <glyph glyph-name="F" unicode="F" horiz-adv-x="1174" 
d="M1132 1011h-30v52h-862v-368h608v52h30v-248h-30v53h-608v-522h52v-30h-248v30h52v1147h-52v30h1058v52h30v-248z" />
    <glyph glyph-name="G" unicode="G" horiz-adv-x="1376" 
d="M1340 564l-52.001 0.00292969v-319h40v-15c-61.333 -58.667 -102 -95.667 -122 -111c-54.667 -42 -114.334 -73.333 -179.001 -94c-80.667 -26 -178 -39 -292 -39c-217.333 0 -389.333 60.333 -516 181c-119.333 113.333 -179 258.333 -179 435
c0 181.333 65 329.666 195 444.999s296.667 173 500 173c88.667 0 171.334 -10.333 248.001 -31c61.333 -16.667 119 -40.334 173 -71.001c38 -22 74.667 -47.667 110 -77l28 42l25 -16l-135 -209l-25 17l29 44l-97 69c-47.333 30.667 -95 53.667 -143 69
c-64 20.667 -135 31 -213 31c-150 0 -277.333 -44.667 -382 -134c-108.667 -92.667 -163 -210 -163 -352c0 -150.667 52 -269.334 156 -356.001c98.667 -82.667 228.334 -124 389.001 -124c109.333 0 200 16.333 272 49c32.667 14.667 80 46 142 94v185h-351v-52h-30v248h30
v-52h542v-30z" />
    <glyph glyph-name="H" unicode="H" horiz-adv-x="1292" 
d="M1248 0h-248v30h52v522h-812v-522h52v-30h-248v30h52v1147h-52v30h248v-30h-52v-482h812v482h-52v30h248v-30h-52v-1147h52v-30z" />
    <glyph glyph-name="I" unicode="I" horiz-adv-x="405" 
d="M336 0h-248v30h52v1147h-52v30h248v-30h-52v-1147h52v-30z" />
    <glyph glyph-name="J" unicode="J" horiz-adv-x="946" 
d="M903 1177h-52v-767v-35c0 -48 -2 -87.333 -6 -118s-13.667 -61.334 -29 -92.001c-30.667 -60 -80.334 -105.667 -149.001 -137c-61.333 -28 -131.666 -42 -210.999 -42c-46 0 -102.333 9.66699 -169 29c-51.333 14.667 -101.666 32.334 -150.999 53.001l-66 30l-21 -48
l-28 12l97 229l28 -12l-22 -54c10.667 -10.667 50.667 -30 120 -58c84 -34 151.333 -51 202 -51c89.333 0 153.666 17 192.999 51c45.333 38.667 68 106 68 202v808h-52v30h248v-30z" />
    <glyph glyph-name="K" unicode="K" horiz-adv-x="1262" 
d="M1225 0h-278v30h43l-492 641l-263 -205v-436h52v-30h-248v30h52v1147h-52v30h248v-30h-52v-556l692 556h-44v30h305v-30h-62l-518 -420l558 -727h59v-30z" />
    <glyph glyph-name="L" unicode="L" horiz-adv-x="1065" 
d="M1021 -52h-30v52h-947v30h52v1147h-52v30h248v-30h-52v-1033h751v52h30v-248z" />
    <glyph glyph-name="M" unicode="M" horiz-adv-x="1431" 
d="M1392 0h-248v30h52v907l-484 -959l-472 961v-909h52v-30h-248v30h52v1147h-52v30h302v-30h-52l426 -883l433 883h-52v30h291v-30h-52v-1147h52v-30z" />
    <glyph glyph-name="N" unicode="N" horiz-adv-x="1302" 
d="M1255 0h-248v30h52l-824 915v-915h52v-30h-248v30h52v1147h-52v30h248v-30h-52l824 -902v902h-52v30h248v-30h-52v-1147h52v-30z" />
    <glyph glyph-name="O" unicode="O" 
d="M1437 620c0 -180.667 -62 -330.334 -186 -449.001c-128.667 -123.333 -297 -185 -505 -185c-199.333 0 -365.333 56.667 -498 170c-139.333 118.667 -209 273.334 -209 464.001c0 175.333 68 319.5 204 432.5s303.667 169.5 503 169.5c185.333 0 345 -55 479 -165
c141.333 -116 212 -261.667 212 -437zM1279 614c0 156.667 -56.001 278.999 -168.001 366.999c-99.333 78 -221 117 -365 117c-149.333 0 -274.666 -38 -375.999 -114c-115.333 -86.667 -173 -208 -173 -364c0 -151.333 51.833 -274.166 155.5 -368.499
s235.834 -141.5 396.501 -141.5c157.333 0 285.666 48.667 384.999 146c96.667 94.667 145 214 145 358z" />
    <glyph glyph-name="P" unicode="P" horiz-adv-x="1181" 
d="M1138 879c0 -43.333 -8.33203 -85.167 -24.999 -125.5s-40.667 -76.833 -72 -109.5c-40.667 -42.667 -98.667 -72.667 -174 -90c-46 -10.667 -97.333 -16 -154 -16h-478v-508h52v-30h-248v30h52v1147h-52v30h724c50 0 91.333 -3 124 -9
c55.333 -10 101.666 -29.833 138.999 -59.5s65.333 -67.167 84 -112.5s28 -94.333 28 -147zM991.001 878.999c0 34.667 -6.66699 66.332 -20 94.999s-34.333 52.334 -63 71.001c-18.667 12.667 -39.334 21.167 -62.001 25.5s-48 6.5 -76 6.5h-53h-482v-411h484
c40 0 72.667 2.66699 98 8c37.333 8 68.833 21.667 94.5 41s45.334 43.5 59.001 72.5s20.5 59.5 20.5 91.5z" />
    <glyph glyph-name="Q" unicode="Q" horiz-adv-x="1343" 
d="M1299 610c0 -106.667 -27.999 -211.001 -83.999 -313.001c-50.667 -92.667 -112.334 -163.334 -185.001 -212.001l42 -26c21.333 -13.333 44.333 -26.833 69 -40.5s40 -20.5 46 -20.5c8.66699 -0.666992 18.334 3.33301 29.001 12c3.33301 2.66699 8 7.66699 14 15
l20 -17l-130 -142c-40 20.667 -61.667 32 -65 34c-20 11.333 -41 24.666 -63 39.999l-51 35l-52 36c-30 -13.333 -61 -23.666 -93 -30.999c-42.667 -10 -88.334 -15 -137.001 -15c-161.333 0 -303.833 64.833 -427.5 194.5s-185.5 279.834 -185.5 450.501
c0 172 59.667 317 179 435s268 177 446 177c185.333 0 336.333 -57.667 453 -173s175 -261.666 175 -438.999zM1139 609.999c0 134 -44.8359 246.834 -134.503 338.501s-199.167 137.5 -328.5 137.5c-132.667 0 -244 -43.333 -334 -130c-93.333 -90 -140 -205.333 -140 -346
c0 -133.333 47.333 -250 142 -350c92.667 -98 197.667 -147 315 -147c34.667 0 71.667 4.33301 111 13c-16.667 15.333 -30 27 -40 35c-32 24 -58.167 38.333 -78.5 43s-38.166 7 -53.499 7c-22.667 0 -47 -5.33301 -73 -16l-9 38c30 21.333 53 35.333 69 42
c22.667 9.33301 51.334 14 86.001 14c44 0 98 -18 162 -54c21.333 -12 49.333 -30.333 84 -55c76.667 51.333 132.834 112.166 168.501 182.499s53.5 152.833 53.5 247.5z" />
    <glyph glyph-name="R" unicode="R" horiz-adv-x="1296" 
d="M1250 0h-273.999v30h44l-320 508h-460v-508h52v-30h-248v30h52v1147h-52v30h764c50 0 91.333 -3 124 -9c55.333 -10 101.333 -29.833 138 -59.5s65 -67.667 85 -114s30 -94.833 30 -145.5c0 -44 -8.33301 -86.167 -25 -126.5s-41.334 -76.5 -74.001 -108.5
c-28 -27.333 -62.333 -49.333 -103 -66c-48.667 -20 -88.667 -30 -120 -30l335 -518h52v-30zM1037 882c0 33.333 -6.99902 64.333 -20.999 93s-35 52 -63 70c-18.667 12.667 -39.334 21.167 -62.001 25.5s-48 6.5 -76 6.5h-53h-522v-411h524c40 0 72.667 2.66699 98 8
c37.333 8 69 21.833 95 41.5s45.833 44 59.5 73s20.5 60.167 20.5 93.5z" />
    <glyph glyph-name="S" unicode="S" horiz-adv-x="1267" 
d="M1220 337c0 -117.333 -61.3311 -207.33 -183.998 -269.997c-106 -54 -240 -81 -402 -81c-75.333 0 -152.333 10.333 -231 31c-61.333 16 -121 37.333 -179 64c-37.333 16.667 -68.333 33.334 -93 50.001l-58 38l-30 -49l-27 14l121 217l26 -14l-26 -46
c9.33301 -8.66699 36 -25 80 -49c62.667 -34.667 124 -62.334 184 -83.001c85.333 -29.333 163 -44 233 -44c120 0 220.667 17.667 302 53c92 40 138 94.667 138 164c0 105.333 -86.333 171.666 -259 198.999l-482 61c-173.333 42.667 -260 134.667 -260 276
c0 88 28.667 160 86 216c50 48.667 121.333 84.667 214 108c80 20 170.667 30 272 30c82.667 0 164 -11 244 -33c43.333 -12 91.666 -29.667 144.999 -53l115 -51l25 44l26 -14l-120 -218l-26 15l25 46c-41.333 33.333 -103.833 63.666 -187.5 90.999
s-165.834 41 -246.501 41c-123.333 0 -222.333 -16 -297 -48c-88.667 -38 -133 -96 -133 -174c0 -89.333 83.667 -145 251 -167l493 -65c174 -48.667 261 -148.334 261 -299.001z" />
    <glyph glyph-name="T" unicode="T" horiz-adv-x="1227" 
d="M1183 1011h-30v52h-461v-1033h52v-30h-248v30h52v1033h-478v-52h-30v248h30v-52h1083v52h30v-248z" />
    <glyph glyph-name="U" unicode="U" horiz-adv-x="1246" 
d="M1195 1177l-52 0.00292969v-795c0 -54.667 -4.66699 -99 -14 -133c-12.667 -46.667 -36.834 -89.834 -72.501 -129.501s-93.5 -71.834 -173.5 -96.501s-165.333 -37 -256 -37c-96.667 0 -182 9.66699 -256 29c-86 22.667 -151.333 57 -196 103
c-32.667 34 -54.834 70.833 -66.501 110.5s-17.5 87.5 -17.5 143.5v805h-52v30h248v-30h-52v-797c0 -50 5 -89 15 -117c13.333 -36.667 37.333 -65.667 72 -87s79.167 -37.333 133.5 -48s111.5 -16 171.5 -16c62.667 0 121.834 6.66699 177.501 20s96.5 30.666 122.5 51.999
c28.667 23.333 48.334 52 59.001 86c8.66699 28 13 64.667 13 110v797h-52v30h248v-30z" />
    <glyph glyph-name="V" unicode="V" horiz-adv-x="1327" 
d="M1303 1177h-52l-477 -1147h52v-30h-281v30h52l-515 1147h-52v30h253v-30h-42l443 -997l415 997h-40v30h244v-30z" />
    <glyph glyph-name="W" unicode="W" horiz-adv-x="2012" 
d="M1982 1177h-52l-418 -1147h52v-30h-248v30h52l-342 984l-360 -984h52v-30h-259v30h52l-424 1147h-52v30h253v-30h-42l350 -968l348 968h-40v30h235v-30h-40l354 -955l325 955h-40v30h244v-30z" />
    <glyph glyph-name="X" unicode="X" horiz-adv-x="1346" 
d="M1307 0h-299v30h40l-383 496l-383 -496h38v-30h-281v30h63l471 610l-411 537h-56v30h282v-30h-40l319 -423l336 423h-39v30h278v-30h-56l-429 -527l493 -620h57v-30z" />
    <glyph glyph-name="Y" unicode="Y" horiz-adv-x="1342" 
d="M1311 1177h-53l-488 -640v-507h52v-30h-248v30h52v507l-544 640h-48v30h278v-30h-39l431 -515l393 515h-39v30h253v-30z" />
    <glyph glyph-name="Z" unicode="Z" horiz-adv-x="1189" 
d="M1179 1207l-854 -1063h794v52h30v-248h-30v52h-1098l850 1063h-800v-52h-30v248h30v-52h1108z" />
    <glyph glyph-name="bracketleft" unicode="[" horiz-adv-x="450" 
d="M390 -117h-348v1412h346v-36h-170v-1334h172v-42z" />
    <glyph glyph-name="backslash" unicode="\" horiz-adv-x="969" 
d="M925 0h-186v30h36l-672 1147h-52v30h193v-30h-39l668 -1147h52v-30z" />
    <glyph glyph-name="bracketright" unicode="]" horiz-adv-x="450" 
d="M401 -117h-348v42h172v1334h-170v36h346v-1412z" />
    <glyph glyph-name="asciicircum" unicode="^" horiz-adv-x="741" 
d="M715 908h-149l-186 164l-192 -164h-149l342 319z" />
    <glyph glyph-name="underscore" unicode="_" horiz-adv-x="1035" 
d="M1063 -250h-1036v40h1036v-40z" />
    <glyph glyph-name="grave" unicode="`" horiz-adv-x="389" 
d="M346 887h-140l-160 320h300v-320z" />
    <glyph glyph-name="a" unicode="a" horiz-adv-x="1362" 
d="M1313 0h-273v30h50l-132 308h-583l-136 -308h47v-30h-253v30h52l508 1147h-52v30h256v-30h-52l516 -1147h52v-30zM898 468l-231 570l-242 -570h473z" />
    <glyph glyph-name="b" unicode="b" horiz-adv-x="1218" 
d="M1116 526c20.667 -24.667 35.835 -52.832 45.502 -84.499s14.5 -65.167 14.5 -100.5c0 -48 -8 -93 -24 -135s-38 -76 -66 -102c-44 -40 -92.167 -67.333 -144.5 -82s-120.833 -22 -205.5 -22h-696v30h52v1147h-52v30h704c60.667 0 103 -2 127 -6
c39.333 -6.66699 78.333 -21.667 117 -45c48 -28.667 85.167 -67 111.5 -115s39.5 -98.667 39.5 -152c0 -55.333 -13.667 -107 -41 -155c-15.333 -26.667 -39 -52.334 -71 -77.001c-30.667 -20 -46.334 -30.333 -47.001 -31c17.333 -6.66699 31.666 -13 42.999 -19
c33.333 -19.333 64.333 -46.333 93 -81zM931.001 1025c-21.333 16.667 -42.833 27.167 -64.5 31.5s-51.167 6.5 -88.5 6.5h-37h-505v-368h524c36.667 0 68 3 94 9s49.5 17.333 70.5 34s37.167 38.5 48.5 65.5s17 55.5 17 85.5c0 26.667 -4.83301 52 -14.5 76
s-24.5 44 -44.5 60zM960.001 208.002c18 22.667 31.499 46.667 40.499 72s13.5 49 13.5 71c0 27.333 -5.5 52.833 -16.5 76.5s-25.5 44.5 -43.5 62.5c-22 21.333 -50.167 37 -84.5 47s-70.166 15 -107.499 15h-526v-408h506c51.333 0 93.333 4 126 12
c42 10 72.667 27.333 92 52z" />
    <glyph glyph-name="c" unicode="c" horiz-adv-x="1410" 
d="M1365 202l-24.002 -17.999l-32 39l-69 -61c-60.667 -46.667 -127 -84.667 -199 -114c-101.333 -41.333 -206 -62 -314 -62c-215.333 0 -385.333 60.667 -510 182c-116 113.333 -174 258.666 -174 435.999s70.333 325.333 211 444c135.333 114.667 298.333 172 489 172
c90 0 178.667 -12.667 266 -38c64.667 -18.667 124.334 -42.667 179.001 -72c24 -12.667 47.333 -27 70 -43l26 42l26 -15l-127 -213l-26 16l27 45c-21.333 18 -43.333 34 -66 48c-44.667 27.333 -93.667 49 -147 65c-72.667 22 -150 33 -232 33
c-147.333 0 -273.333 -44.333 -378 -133c-108 -91.333 -162 -205.666 -162 -342.999c0 -146 51.333 -264.667 154 -356c100.667 -89.333 229.334 -134 386.001 -134c90.667 0 176.334 17.667 257.001 53c60 26 114.667 60 164 102
c25.333 21.333 45.666 41.666 60.999 60.999l-33 41l24 19z" />
    <glyph glyph-name="d" unicode="d" horiz-adv-x="1308" 
d="M1277 610c0 -80.667 -11.834 -157.335 -35.501 -230.002s-59.167 -136 -106.5 -190c-61.333 -71.333 -131.333 -121.666 -210 -150.999c-70 -26 -157.333 -39 -262 -39h-624v30h52v1147h-52v30h670c96.667 0 174.834 -9.66699 234.501 -29s117.5 -54.666 173.5 -105.999
c51.333 -46 91.333 -111.667 120 -197c26.667 -80 40 -168.333 40 -265zM1120 614.999c0 68 -9.33301 131.833 -28 191.5s-43.667 108.167 -75 145.5c-34.667 40.667 -80 70 -136 88c-48 15.333 -107.333 23 -178 23h-468v-919h434c90.667 0 164.5 12 221.5 36
s103.833 63.333 140.5 118c30 46 52.333 96.167 67 150.5s22 109.833 22 166.5z" />
    <glyph glyph-name="e" unicode="e" horiz-adv-x="1146" 
d="M1101 -52h-30v52h-1022v30h52v1147h-52v30h1022v52h30v-248h-30v52h-826v-368h560v52h30v-248h-30v52h-560v-407h826v52h30v-248z" />
    <glyph glyph-name="f" unicode="f" horiz-adv-x="1182" 
d="M1132 1011h-30v52h-862v-368h608v52h30v-248h-30v53h-608v-522h52v-30h-248v30h52v1147h-52v30h1058v52h30v-248z" />
    <glyph glyph-name="g" unicode="g" horiz-adv-x="1380" 
d="M1340 564l-52.001 0.00292969v-319h40v-15c-61.333 -58.667 -102 -95.667 -122 -111c-54.667 -42 -114.334 -73.333 -179.001 -94c-80.667 -26 -178 -39 -292 -39c-217.333 0 -389.333 60.333 -516 181c-119.333 113.333 -179 258.333 -179 435
c0 181.333 65 329.666 195 444.999s296.667 173 500 173c88.667 0 171.334 -10.333 248.001 -31c61.333 -16.667 119 -40.334 173 -71.001c38 -22 74.667 -47.667 110 -77l28 42l25 -16l-135 -209l-25 17l29 44l-97 69c-47.333 30.667 -95 53.667 -143 69
c-64 20.667 -135 31 -213 31c-150 0 -277.333 -44.667 -382 -134c-108.667 -92.667 -163 -210 -163 -352c0 -150.667 52 -269.334 156 -356.001c98.667 -82.667 228.334 -124 389.001 -124c109.333 0 200 16.333 272 49c32.667 14.667 80 46 142 94v185h-351v-52h-30v248h30
v-52h542v-30z" />
    <glyph glyph-name="h" unicode="h" horiz-adv-x="1302" 
d="M1248 0h-248v30h52v522h-812v-522h52v-30h-248v30h52v1147h-52v30h248v-30h-52v-482h812v482h-52v30h248v-30h-52v-1147h52v-30z" />
    <glyph glyph-name="i" unicode="i" horiz-adv-x="420" 
d="M336 0h-248v30h52v1147h-52v30h248v-30h-52v-1147h52v-30z" />
    <glyph glyph-name="j" unicode="j" horiz-adv-x="954" 
d="M903 1177h-52v-767v-35c0 -48 -2 -87.333 -6 -118s-13.667 -61.334 -29 -92.001c-30.667 -60 -80.334 -105.667 -149.001 -137c-61.333 -28 -131.666 -42 -210.999 -42c-46 0 -102.333 9.66699 -169 29c-51.333 14.667 -101.666 32.334 -150.999 53.001l-66 30l-21 -48
l-28 12l97 229l28 -12l-22 -54c10.667 -10.667 50.667 -30 120 -58c84 -34 151.333 -51 202 -51c89.333 0 153.666 17 192.999 51c45.333 38.667 68 106 68 202v808h-52v30h248v-30z" />
    <glyph glyph-name="k" unicode="k" horiz-adv-x="1266" 
d="M1225 0h-278v30h43l-492 641l-263 -205v-436h52v-30h-248v30h52v1147h-52v30h248v-30h-52v-556l692 556h-44v30h305v-30h-62l-518 -420l558 -727h59v-30z" />
    <glyph glyph-name="l" unicode="l" horiz-adv-x="1056" 
d="M1021 -52h-30v52h-947v30h52v1147h-52v30h248v-30h-52v-1033h751v52h30v-248z" />
    <glyph glyph-name="m" unicode="m" horiz-adv-x="1440" 
d="M1392 0h-248v30h52v907l-484 -959l-472 961v-909h52v-30h-248v30h52v1147h-52v30h302v-30h-52l426 -883l433 883h-52v30h291v-30h-52v-1147h52v-30z" />
    <glyph glyph-name="n" unicode="n" horiz-adv-x="1296" 
d="M1255 0h-248v30h52l-824 915v-915h52v-30h-248v30h52v1147h-52v30h248v-30h-52l824 -902v902h-52v30h248v-30h-52v-1147h52v-30z" />
    <glyph glyph-name="o" unicode="o" 
d="M1437 620c0 -180.667 -62 -330.334 -186 -449.001c-128.667 -123.333 -297 -185 -505 -185c-199.333 0 -365.333 56.667 -498 170c-139.333 118.667 -209 273.334 -209 464.001c0 175.333 68 319.5 204 432.5s303.667 169.5 503 169.5c185.333 0 345 -55 479 -165
c141.333 -116 212 -261.667 212 -437zM1279 614c0 156.667 -56.001 278.999 -168.001 366.999c-99.333 78 -221 117 -365 117c-149.333 0 -274.666 -38 -375.999 -114c-115.333 -86.667 -173 -208 -173 -364c0 -151.333 51.833 -274.166 155.5 -368.499
s235.834 -141.5 396.501 -141.5c157.333 0 285.666 48.667 384.999 146c96.667 94.667 145 214 145 358z" />
    <glyph glyph-name="p" unicode="p" horiz-adv-x="1182" 
d="M1138 879c0 -43.333 -8.33203 -85.167 -24.999 -125.5s-40.667 -76.833 -72 -109.5c-40.667 -42.667 -98.667 -72.667 -174 -90c-46 -10.667 -97.333 -16 -154 -16h-478v-508h52v-30h-248v30h52v1147h-52v30h724c50 0 91.333 -3 124 -9
c55.333 -10 101.666 -29.833 138.999 -59.5s65.333 -67.167 84 -112.5s28 -94.333 28 -147zM991.001 878.999c0 34.667 -6.66699 66.332 -20 94.999s-34.333 52.334 -63 71.001c-18.667 12.667 -39.334 21.167 -62.001 25.5s-48 6.5 -76 6.5h-53h-482v-411h484
c40 0 72.667 2.66699 98 8c37.333 8 68.833 21.667 94.5 41s45.334 43.5 59.001 72.5s20.5 59.5 20.5 91.5z" />
    <glyph glyph-name="q" unicode="q" horiz-adv-x="1344" 
d="M1299 610c0 -106.667 -27.999 -211.001 -83.999 -313.001c-50.667 -92.667 -112.334 -163.334 -185.001 -212.001l42 -26c21.333 -13.333 44.333 -26.833 69 -40.5s40 -20.5 46 -20.5c8.66699 -0.666992 18.334 3.33301 29.001 12c3.33301 2.66699 8 7.66699 14 15
l20 -17l-130 -142c-40 20.667 -61.667 32 -65 34c-20 11.333 -41 24.666 -63 39.999l-51 35l-52 36c-30 -13.333 -61 -23.666 -93 -30.999c-42.667 -10 -88.334 -15 -137.001 -15c-161.333 0 -303.833 64.833 -427.5 194.5s-185.5 279.834 -185.5 450.501
c0 172 59.667 317 179 435s268 177 446 177c185.333 0 336.333 -57.667 453 -173s175 -261.666 175 -438.999zM1139 609.999c0 134 -44.8359 246.834 -134.503 338.501s-199.167 137.5 -328.5 137.5c-132.667 0 -244 -43.333 -334 -130c-93.333 -90 -140 -205.333 -140 -346
c0 -133.333 47.333 -250 142 -350c92.667 -98 197.667 -147 315 -147c34.667 0 71.667 4.33301 111 13c-16.667 15.333 -30 27 -40 35c-32 24 -58.167 38.333 -78.5 43s-38.166 7 -53.499 7c-22.667 0 -47 -5.33301 -73 -16l-9 38c30 21.333 53 35.333 69 42
c22.667 9.33301 51.334 14 86.001 14c44 0 98 -18 162 -54c21.333 -12 49.333 -30.333 84 -55c76.667 51.333 132.834 112.166 168.501 182.499s53.5 152.833 53.5 247.5z" />
    <glyph glyph-name="r" unicode="r" horiz-adv-x="1296" 
d="M1250 0h-273.999v30h44l-320 508h-460v-508h52v-30h-248v30h52v1147h-52v30h764c50 0 91.333 -3 124 -9c55.333 -10 101.333 -29.833 138 -59.5s65 -67.667 85 -114s30 -94.833 30 -145.5c0 -44 -8.33301 -86.167 -25 -126.5s-41.334 -76.5 -74.001 -108.5
c-28 -27.333 -62.333 -49.333 -103 -66c-48.667 -20 -88.667 -30 -120 -30l335 -518h52v-30zM1037 882c0 33.333 -6.99902 64.333 -20.999 93s-35 52 -63 70c-18.667 12.667 -39.334 21.167 -62.001 25.5s-48 6.5 -76 6.5h-53h-522v-411h524c40 0 72.667 2.66699 98 8
c37.333 8 69 21.833 95 41.5s45.833 44 59.5 73s20.5 60.167 20.5 93.5z" />
    <glyph glyph-name="s" unicode="s" horiz-adv-x="1260" 
d="M1220 337c0 -117.333 -61.3311 -207.33 -183.998 -269.997c-106 -54 -240 -81 -402 -81c-75.333 0 -152.333 10.333 -231 31c-61.333 16 -121 37.333 -179 64c-37.333 16.667 -68.333 33.334 -93 50.001l-58 38l-30 -49l-27 14l121 217l26 -14l-26 -46
c9.33301 -8.66699 36 -25 80 -49c62.667 -34.667 124 -62.334 184 -83.001c85.333 -29.333 163 -44 233 -44c120 0 220.667 17.667 302 53c92 40 138 94.667 138 164c0 105.333 -86.333 171.666 -259 198.999l-482 61c-173.333 42.667 -260 134.667 -260 276
c0 88 28.667 160 86 216c50 48.667 121.333 84.667 214 108c80 20 170.667 30 272 30c82.667 0 164 -11 244 -33c43.333 -12 91.666 -29.667 144.999 -53l115 -51l25 44l26 -14l-120 -218l-26 15l25 46c-41.333 33.333 -103.833 63.666 -187.5 90.999
s-165.834 41 -246.501 41c-123.333 0 -222.333 -16 -297 -48c-88.667 -38 -133 -96 -133 -174c0 -89.333 83.667 -145 251 -167l493 -65c174 -48.667 261 -148.334 261 -299.001z" />
    <glyph glyph-name="t" unicode="t" horiz-adv-x="1224" 
d="M1183 1011h-30v52h-461v-1033h52v-30h-248v30h52v1033h-478v-52h-30v248h30v-52h1083v52h30v-248z" />
    <glyph glyph-name="u" unicode="u" horiz-adv-x="1248" 
d="M1195 1177l-52 0.00292969v-795c0 -54.667 -4.66699 -99 -14 -133c-12.667 -46.667 -36.834 -89.834 -72.501 -129.501s-93.5 -71.834 -173.5 -96.501s-165.333 -37 -256 -37c-96.667 0 -182 9.66699 -256 29c-86 22.667 -151.333 57 -196 103
c-32.667 34 -54.834 70.833 -66.501 110.5s-17.5 87.5 -17.5 143.5v805h-52v30h248v-30h-52v-797c0 -50 5 -89 15 -117c13.333 -36.667 37.333 -65.667 72 -87s79.167 -37.333 133.5 -48s111.5 -16 171.5 -16c62.667 0 121.834 6.66699 177.501 20s96.5 30.666 122.5 51.999
c28.667 23.333 48.334 52 59.001 86c8.66699 28 13 64.667 13 110v797h-52v30h248v-30z" />
    <glyph glyph-name="v" unicode="v" horiz-adv-x="1350" 
d="M1303 1177h-52l-477 -1147h52v-30h-281v30h52l-515 1147h-52v30h253v-30h-42l443 -997l415 997h-40v30h244v-30z" />
    <glyph glyph-name="w" unicode="w" horiz-adv-x="2028" 
d="M1982 1177h-52l-418 -1147h52v-30h-248v30h52l-342 984l-360 -984h52v-30h-259v30h52l-424 1147h-52v30h253v-30h-42l350 -968l348 968h-40v30h235v-30h-40l354 -955l325 955h-40v30h244v-30z" />
    <glyph glyph-name="x" unicode="x" horiz-adv-x="1368" 
d="M1307 0h-299v30h40l-383 496l-383 -496h38v-30h-281v30h63l471 610l-411 537h-56v30h282v-30h-40l319 -423l336 423h-39v30h278v-30h-56l-429 -527l493 -620h57v-30z" />
    <glyph glyph-name="y" unicode="y" horiz-adv-x="1362" 
d="M1311 1177h-53l-488 -640v-507h52v-30h-248v30h52v507l-544 640h-48v30h278v-30h-39l431 -515l393 515h-39v30h253v-30z" />
    <glyph glyph-name="z" unicode="z" horiz-adv-x="1200" 
d="M1179 1207l-854 -1063h794v52h30v-248h-30v52h-1098l850 1063h-800v-52h-30v248h30v-52h1108z" />
    <glyph glyph-name="braceleft" unicode="{" horiz-adv-x="448" 
d="M416 1317l-33.001 -11.9971c-13.333 -5.33301 -25 -12 -35 -20s-20.333 -19.167 -31 -33.5s-18.334 -31.833 -23.001 -52.5s-7 -39.334 -7 -56.001v-373c0 -14 -2.33301 -30.333 -7 -49c-6.66699 -28 -16.667 -49.333 -30 -64
c-9.33301 -12.667 -19.666 -22.5 -30.999 -29.5s-25.333 -13.5 -42 -19.5l-24 -9l27 -12c16 -6.66699 28.833 -13.334 38.5 -20.001s19.167 -16.5 28.5 -29.5s16.166 -24.5 20.499 -34.5s6.5 -22.667 6.5 -38v-412c0 -29.333 2.33301 -52.833 7 -70.5s15 -35.834 31 -54.501
c18.667 -22 40.334 -37 65.001 -45l30 -9h-50c-32 0 -60.333 4 -85 12c-30.667 10 -57.667 26.333 -81 49c-17.333 16.667 -28.833 41.667 -34.5 75s-8.5 72.333 -8.5 117v29.5c0 9.66699 0.333008 19.167 1 28.5v298c0 26.667 -10 51 -30 73
c-8 8.66699 -17.333 15.667 -28 21c-4 2 -15.333 7 -34 15l-22 10l22 8c23.333 10.667 39.5 19.167 48.5 25.5s17.167 14.166 24.5 23.499c16.667 20.667 26.334 46 29.001 76l1 400c0 24 3.66699 46.333 11 67s20 40.834 38 60.501s38.667 33.667 62 42
s50.333 12.5 81 12.5h64z" />
    <glyph glyph-name="bar" unicode="|" horiz-adv-x="203" 
d="M167 -397h-127l1 1617h126v-1617z" />
    <glyph glyph-name="braceright" unicode="}" horiz-adv-x="448" 
d="M425 602l-21.998 -10c-11.333 -4.66699 -22.333 -9.5 -33 -14.5s-20.334 -12.167 -29.001 -21.5c-20 -22 -30 -46.333 -30 -73v-298v-27.5c0 -9.66699 0.333008 -19.834 1 -30.501c0 -57.333 -3.66699 -100.333 -11 -129s-18 -49.667 -32 -63
c-22.667 -22 -48.334 -37.667 -77.001 -47s-58.334 -14 -89.001 -14h-50l30 9c14 4 25.833 9.5 35.5 16.5s19.5 16.5 29.5 28.5c15.333 17.333 25.5 35.666 30.5 54.999s7.5 42.666 7.5 69.999v412c0 14.667 2 27 6 37s11 21.833 21 35.5s19.167 23.5 27.5 29.5
s21.5 12.667 39.5 20l27 12l-24 9c-17.333 6 -31.333 12.333 -42 19s-21 16.667 -31 30c-13.333 14.667 -22.833 33.667 -28.5 57s-8.5 42 -8.5 56v373c0 19.333 -1.66699 36.333 -5 51c-5.33301 22.667 -13.666 41.667 -24.999 57s-21.333 26.5 -30 33.5
s-20.667 13.833 -36 20.5l-33 12h64c32 0 59.167 -4 81.5 -12s43.166 -22.333 62.499 -43c16.667 -18 28.834 -37.833 36.501 -59.5s11.5 -44.167 11.5 -67.5l1 -400c1.33301 -17.333 4 -31.166 8 -41.499s10.833 -21.666 20.5 -33.999s20.5 -22.166 32.5 -29.499
c6 -4 19.667 -10.667 41 -20z" />
    <glyph glyph-name="asciitilde" unicode="~" horiz-adv-x="933" 
d="M896 1194c-4 -34.667 -21.001 -72.667 -51.001 -114c-33.333 -46 -69 -75.667 -107 -89c-25.333 -8.66699 -51 -13 -77 -13c-20 0 -40.833 2.33301 -62.5 7s-44.5 11 -68.5 19l-135 46c-26.667 8.66699 -45 14 -55 16c-20 4.66699 -35.333 7 -46 7
c-20.667 0 -38.167 -4.83301 -52.5 -14.5s-27.5 -28.5 -39.5 -56.5c-4 -9.33301 -8.33301 -22.666 -13 -39.999l-145 38c4 34.667 21 72.667 51 114c33.333 46 69.333 76 108 90c24 9.33301 50.667 14 80 14c20 0 40.5 -2.33301 61.5 -7s43.167 -11.334 66.5 -20.001
l125 -47c20 -7.33301 38.833 -13.5 56.5 -18.5s33.834 -7.5 48.501 -7.5c21.333 0 40 5.33301 56 16s30 30.334 42 59.001c4 9.33301 8.33301 22.666 13 39.999z" />
    <glyph glyph-name="nonbreakingspace" unicode="&#xa0;" horiz-adv-x="1005" 
 />
    <glyph glyph-name="exclamdown" unicode="&#xa1;" horiz-adv-x="375" 
d="M293 799c0 -28.667 -10.167 -53.167 -30.5 -73.5s-44.833 -30.5 -73.5 -30.5s-53.167 10.167 -73.5 30.5s-30.5 44.833 -30.5 73.5s10.167 53.167 30.5 73.5s44.833 30.5 73.5 30.5s53.167 -10.167 73.5 -30.5s30.5 -44.833 30.5 -73.5zM341 -316h-288v30h52l42 816h-52
v30h191v-30h-52l55 -816h52v-30z" />
    <glyph glyph-name="cent" unicode="&#xa2;" horiz-adv-x="881" 
d="M848 464l-15.999 -10.9971l-20 25c-22.667 -19.333 -41 -34 -55 -44c-43.333 -32 -79.666 -53.167 -108.999 -63.5s-57.166 -17.833 -83.499 -22.5s-58.5 -8.66699 -96.5 -12v-136h-80v140c-98.667 8.66699 -179.834 50 -243.501 124s-95.5 162 -95.5 264
c0 103.333 37.667 188.333 113 255c64 56 139.333 89.667 226 101v124h80v-122c52.667 0 104.667 -6.66699 156 -20c27.333 -6.66699 62.666 -19.334 105.999 -38.001c33.333 -14.667 53.666 -24.334 60.999 -29.001l17 27l17 -10l-83 -138l-17 10l17 29
c-10 8.66699 -28.333 20 -55 34c-33.333 17.333 -61.5 29.5 -84.5 36.5s-45.333 12.167 -67 15.5s-44.167 5 -67.5 5v-594c29.333 0 55.333 2.83301 78 8.5s47.5 15 74.5 28s56.5 32.833 88.5 59.5c25.333 21.333 40.333 35.666 45 42.999l-21 27l16 12zM388.001 418.003
l-0.000976562 581.999c-66 -12.667 -121.167 -44 -165.5 -94s-69.833 -109 -76.5 -177c-0.666992 -4.66699 -1 -12 -1 -22c0 -65.333 22.833 -126.666 68.5 -183.999s103.834 -92.333 174.501 -105z" />
    <glyph glyph-name="sterling" unicode="&#xa3;" horiz-adv-x="1246" 
d="M1223 52l-22.001 -20.9961l-35 35c-22 -16 -40.667 -28 -56 -36c-46 -24 -90.333 -36 -133 -36c-69.333 0 -132.333 11.333 -189 34c-28 11.333 -63 30.666 -105 57.999l-67 44c-18 -28.667 -61 -59 -129 -91c-58 -27.333 -119.333 -44 -184 -50
c-4.66699 -0.666992 -9.83398 -1 -15.501 -1h-12.5c-64 0 -118.333 17.333 -163 52c-47.333 36.667 -71 84.667 -71 144c0 60.667 23.833 110 71.5 148s105.834 57 174.501 57c47.333 0 91.5 -5.16699 132.5 -15.5s74.833 -26.166 101.5 -47.499c0 19.333 -1 36.5 -3 51.5
s-6.16699 32.167 -12.5 51.5s-14.833 35.166 -25.5 47.499l-32 37.5h-364v64h299l-53 54h-246v64h186l-18 24c-22.667 31.333 -38 59.666 -46 84.999s-12 59.666 -12 102.999c0 96 43 173.333 129 232c78.667 53.333 174.667 80 288 80c104 0 195 -12 273 -36
c45.333 -14 83.333 -31 114 -51l39 50l24 -17l-142 -203l-24 17l30 43c-26.667 19.333 -59.334 35 -98.001 47c-59.333 18.667 -128.666 28 -207.999 28c-89.333 0 -161 -22.667 -215 -68c-42 -35.333 -63 -69.333 -63 -102c0 -50.667 7 -89.667 21 -117
c9.33301 -18.667 32 -45 68 -79l38 -36h404v-64h-344l48 -54h296v-64l-248 -1l18.5 -28c5.66699 -8.66699 12.334 -25 20.001 -49s12.834 -44.333 15.501 -61s4 -35.334 4 -56.001c0 -16.667 -1 -35 -3 -55c6 -10 40.333 -32.667 103 -68
c75.333 -42.667 134.666 -64 177.999 -64c38.667 0 66 5.33301 82 16l22 22l-37 37l20 21zM490.999 194.004c-13.333 16 -38.167 31.333 -74.5 46s-72.5 22 -108.5 22c-36.667 0 -66.667 -5.66699 -90 -17c-29.333 -14 -44 -36 -44 -66c0 -26 15.333 -45 46 -57
c24 -9.33301 54.333 -14 91 -14c35.333 0 70.833 9.5 106.5 28.5s60.167 38.167 73.5 57.5z" />
    <glyph glyph-name="yen" unicode="&#xa5;" horiz-adv-x="1345" 
d="M1311 1175h-53l-452 -592h367v-84h-403v-176h403v-84h-403v-211h52v-30h-248v30h52v211h-393v84h393v176h-393v84h352l-503 592h-48v30h278v-30h-39l431 -515l393 515h-39v30h253v-30z" />
    <glyph glyph-name="section" unicode="&#xa7;" horiz-adv-x="823" 
d="M778 471c0 -36 -11.6709 -71.6729 -35.0039 -107.006c-14.667 -22 -34.667 -43.667 -60 -65l-34 -31l8 -4c32 -21.333 56.333 -46.166 73 -74.499s25 -63.166 25 -104.499c0 -92.667 -33.333 -173 -100 -241c-75.333 -77.333 -176.666 -116 -303.999 -116
c-50 0 -98.667 6.83301 -146 20.5s-86 29.167 -116 46.5l-13 8l21 249h50l-1 -86c0 -36 21 -69.333 63 -100c36.667 -27.333 68.334 -42.333 95.001 -45s49 -4 67 -4c77.333 0 140 15.667 188 47c57.333 37.333 86 93 86 167c0 30.667 -12 57.334 -36 80.001
c-20.667 19.333 -57.667 40 -111 62c-41.333 16.667 -105.333 39.667 -192 69l-62 22c-85.333 28 -142.666 63 -171.999 105c-16 22.667 -26 56.667 -30 102c-0.666992 4 -1 9.66699 -1 17c0 38 13.333 76.667 40 116c18 26 42.667 53 74 81l19 17l-18 11
c-21.333 15.333 -38.833 36.333 -52.5 63s-20.5 55 -20.5 85c0 91.333 30.333 172.333 91 243c66.667 78 151.667 117 255 117c32 0 59.333 -1.16699 82 -3.5s42.334 -5.5 59.001 -9.5l101 -31l17 -6l-1 -11l-10 -117l-8 -99l1 -18l-50 1l-14 135l-6 7
c-10 10.667 -22.5 20.5 -37.5 29.5s-31.833 16.833 -50.5 23.5c-38.667 13.333 -77 20 -115 20c-56 0 -103 -13.333 -141 -40c-42 -30 -68.333 -73.667 -79 -131c-1.33301 -9.33301 -2 -16.666 -2 -21.999c0 -39.333 21.167 -74.666 63.5 -105.999
s101.833 -57.666 178.5 -78.999l26 -8l25 -9l71 -21c32 -9.33301 61.333 -19.333 88 -30c56 -24 96.333 -57.333 121 -100c20 -35.333 30 -77 30 -125zM662.996 398.994c1.33301 10.667 2 19.335 2 26.002c0 31.333 -9 59.666 -27 84.999c-24 33.333 -61 58 -111 74l-306 95
l-26 -28c-17.333 -18.667 -28.666 -37.834 -33.999 -57.501s-8 -45.167 -8 -76.5s23 -61 69 -89c35.333 -21.333 89.666 -44.333 162.999 -69l186 -60l38 -12l15 22c20.667 29.333 33.667 59.333 39 90z" />
    <glyph glyph-name="dieresis" unicode="&#xa8;" horiz-adv-x="676" 
d="M581 1117c0 -29.333 -10.333 -54.333 -31 -75s-46 -31 -76 -31c-29.333 0 -54.5 10.167 -75.5 30.5s-31.5 45.5 -31.5 75.5s10.333 55.333 31 76s46 31 76 31s55.333 -10.333 76 -31s31 -46 31 -76zM308 1117c0 -29.333 -10.333 -54.333 -31 -75s-46 -31 -76 -31
c-29.333 0 -54.5 10.167 -75.5 30.5s-31.5 45.5 -31.5 75.5s10.333 55.333 31 76s46 31 76 31s55.333 -10.333 76 -31s31 -46 31 -76z" />
    <glyph glyph-name="copyright" unicode="&#xa9;" horiz-adv-x="1294" 
d="M1266 597c0 -168.667 -59.667 -312.667 -179 -432s-263.666 -179 -432.999 -179s-313.666 59.333 -432.999 178s-179 263 -179 433c0 169.333 59.667 313.666 179 432.999s263.666 179 432.999 179s313.666 -59.667 432.999 -179s179 -263.666 179 -432.999zM1205 597
c0 152 -53.833 281.833 -161.5 389.5s-237.5 161.5 -389.5 161.5s-281.833 -53.833 -389.5 -161.5s-161.5 -237.5 -161.5 -389.5s53.667 -281.667 161 -389s237.333 -161 390 -161c151.333 0 281 53.667 389 161s162 237 162 389zM908 348l-16.002 -41.002l-23 -10
c-22.667 -11.333 -52.5 -21.833 -89.5 -31.5s-72.5 -14.5 -106.5 -14.5c-104.667 0 -190.5 27.167 -257.5 81.5s-105.5 127.833 -115.5 220.5c-2 18 -3 35.333 -3 52c0 95.333 30.333 174 91 236c51.333 52 114.666 85 189.999 99c6.66699 1.33301 17 2.5 31 3.5
s28.333 1.5 43 1.5c25.333 0 46.833 -0.833008 64.5 -2.5s36.334 -4.5 56.001 -8.5s42.167 -9 67.5 -15c9.33301 -2 26 -6.33301 50 -13l14 -4l-20 -143h-30v59v10c0 13.333 -13 27 -39 41s-51.333 23.333 -76 28c-10 2 -22.167 4 -36.5 6s-30.5 3 -48.5 3
c-8 0 -16.167 -0.333008 -24.5 -1s-16.5 -2 -24.5 -4c-71.333 -16 -124.666 -50.333 -159.999 -103c-31.333 -47.333 -47 -106.333 -47 -177c0 -19.333 1 -38.666 3 -57.999c9.33301 -74 40.333 -136.167 93 -186.5s114 -75.5 184 -75.5
c46.667 0 84.834 3.83301 114.501 11.5s58.5 18.834 86.5 33.501l22 12z" />
    <glyph glyph-name="ordfeminine" unicode="&#xaa;" horiz-adv-x="732" 
d="M684 604h-136v15h25l-66 154h-292l-68 -154h24v-15h-127v15h26l254 573h-26v15h128v-15h-26l258 -573h26v-15zM685 499h-641v53h641v-53zM477 838l-116 285l-121 -285h237z" />
    <glyph glyph-name="guillemotleft" unicode="&#xab;" horiz-adv-x="885" 
d="M843 655l-251 -179l245 -175v-181l-348 271v174l354 262v-172zM399 655l-251 -179l246 -175v-181l-348 271v174l353 262v-172z" />
    <glyph glyph-name="logicalnot" unicode="&#xac;" horiz-adv-x="1303" 
d="M1260 0h-101v423h-1113v93h1214v-516z" />
    <glyph glyph-name="registered" unicode="&#xae;" horiz-adv-x="1294" 
d="M1266 597c0 -168.667 -59.667 -312.667 -179 -432s-263.666 -179 -432.999 -179s-313.666 59.333 -432.999 178s-179 263 -179 433c0 169.333 59.667 313.666 179 432.999s263.666 179 432.999 179s313.666 -59.667 432.999 -179s179 -263.666 179 -432.999zM1205 597
c0 152 -53.833 281.833 -161.5 389.5s-237.5 161.5 -389.5 161.5s-281.833 -53.833 -389.5 -161.5s-161.5 -237.5 -161.5 -389.5s53.667 -281.667 161 -389s237.333 -161 390 -161c151.333 0 281 53.667 389 161s162 237 162 389zM978 265l-7.99609 1.00195l-56 3
c-9.33301 0 -18.833 -0.5 -28.5 -1.5l-24.5 -2.5l-13 -1l-265 344l4 15l34 -2c46.667 0 87.334 13.333 122.001 40c37.333 28.667 56 64.334 56 107.001c-3.33301 34 -13 61 -29 81c-18 22.667 -44.667 36.667 -80 42c-13.333 2 -27.333 3 -42 3
c-17.333 0 -32.666 -0.833008 -45.999 -2.5s-25.333 -3.83398 -36 -6.50098l-15 -5v-532c0 -14.667 4.33301 -27.334 13 -38.001c5.33301 -6 13.166 -9.83301 23.499 -11.5s20.166 -2.5 29.499 -2.5l23 -2v-27h-16c-8.66699 0 -18.667 0.333008 -30 1
c-44.667 2.66699 -73.667 4 -87 4c-22.667 0 -42.834 -0.5 -60.501 -1.5l-59.5 -3.5h-16v28l27 2c11.333 0 20.5 0.666992 27.5 2s13.5 5 19.5 11c10 10 15 22.667 15 38v498c0 15.333 -1.33301 25.666 -4 30.999c-4 5.33301 -7.33301 9.33301 -10 12
c-4.66699 5.33301 -13.834 9 -27.501 11s-26.167 3 -37.5 3h-10v28h16l57.5 -2.5c23 -1 43.833 -1.5 62.5 -1.5c46 0 84.167 0.333008 114.5 1s51.5 1.66699 63.5 3h16c40.667 0 75.667 -6 105 -18c39.333 -16 65.666 -41.333 78.999 -76c6.66699 -18 10 -36.333 10 -55
c0 -28.667 -7.5 -55.167 -22.5 -79.5s-37.167 -46.166 -66.5 -65.499c-12.667 -8.66699 -30 -16.667 -52 -24c-8 -2.66699 -20.333 -6.33398 -37 -11.001l-8 -2l214 -282c3.33301 -2.66699 6 -4.66699 8 -6c9.33301 -7.33301 14.666 -11.333 15.999 -12
c8 -4.66699 16.333 -7 25 -7h6v-28z" />
    <glyph glyph-name="degree" unicode="&#xb0;" horiz-adv-x="456" 
d="M405 1041c0 -50.667 -17.833 -93.834 -53.5 -129.501s-78.834 -53.5 -129.501 -53.5s-93.834 17.833 -129.501 53.5s-53.5 78.834 -53.5 129.501s17.833 93.834 53.5 129.501s78.834 53.5 129.501 53.5s93.834 -17.833 129.501 -53.5s53.5 -78.834 53.5 -129.501z
M350 1041c0 36 -12.333 66.333 -37 91s-55 37 -91 37s-66.333 -12.333 -91 -37s-37 -55 -37 -91s12.333 -66.333 37 -91s55 -37 91 -37s66.333 12.333 91 37s37 55 37 91z" />
    <glyph glyph-name="plusminus" unicode="&#xb1;" horiz-adv-x="764" 
d="M722 497h-298v-296h-77v296h-295l1 84h294v297h79v-297h296v-84zM715 -2h-676v64h676v-64z" />
    <glyph glyph-name="acute" unicode="&#xb4;" horiz-adv-x="384" 
d="M345 1207l-160 -320h-140v320h300z" />
    <glyph glyph-name="mu" unicode="&#xb5;" horiz-adv-x="978" 
d="M944 176l-10.999 -55.002c-8.66699 -43.333 -35.334 -80.666 -80.001 -111.999c-40.667 -28.667 -80 -43 -118 -43c-6.66699 0 -11.667 0.333008 -15 1c-38.667 6 -73.667 25.333 -105 58c-33.333 35.333 -50 74.333 -50 117l-46 -45
c-35.333 -36 -73.833 -65.833 -115.5 -89.5s-78.167 -35.5 -109.5 -35.5c-29.333 0 -62.333 8.33301 -99 25c-44 20 -78 46.333 -102 79v-63c0 -36.667 10.333 -82.334 31 -137.001s31 -105 31 -151c0 -30 -7.66699 -56 -23 -78c-17.333 -24.667 -39.333 -37 -66 -37
c-25.333 0 -45.833 10.333 -61.5 31s-23.5 45 -23.5 73c0 41.333 7.66699 83 23 125c18 49.333 28.333 86.333 31 111l3 49v883h150v-608c0 -49.333 15.167 -93.166 45.5 -131.499s68.5 -57.5 114.5 -57.5c46.667 0 94 18.667 142 56c52 40 78 83.667 78 131v610h146v-687
c0 -35.333 8 -67.333 24 -96c18.667 -32.667 42 -49 70 -49c6 0 10.667 0.333008 14 1c19.333 4 35.5 12.833 48.5 26.5s22.5 30.834 28.5 51.501l13 47h32z" />
    <glyph glyph-name="paragraph" unicode="&#xb6;" horiz-adv-x="1037" 
d="M991 1163h-18.001c-14.667 0 -32.334 -1.16699 -53.001 -3.5s-38.167 -6.33301 -52.5 -12s-24.833 -14.5 -31.5 -26.5c-8.66699 -15.333 -13 -37.666 -13 -66.999v-16v-1118c0 -22 7.83301 -37.333 23.5 -46s32.334 -14.667 50.001 -18s34.834 -5 51.501 -5l33 -1v-47
h-29c-36 1.33301 -84.167 2.66602 -144.5 3.99902s-115.166 2 -164.499 2c-68 0 -125 -0.5 -171 -1.5s-97.667 -2.5 -155 -4.5h-27v50l41 3c30 0 51.5 1.66699 64.5 5s24.5 10 34.5 20c18 18.667 27 41.334 27 68.001l1 669h-19c-20.667 0 -49.334 5 -86.001 15
c-50.667 14 -99.667 33.667 -147 59s-86.166 62.666 -116.499 111.999s-45.5 102 -45.5 158c0 31.333 5.33301 61.666 16 90.999c23.333 60.667 66 104.667 128 132c52.667 23.333 118 35 196 35h26c53.333 -3.33301 108.666 -6.16602 165.999 -8.49902s102 -3.5 134 -3.5
c54 0 99.167 0.5 135.5 1.5s77.5 2.5 123.5 4.5l22 1v-52zM456.999 1149l-28 3c-24 0 -49.667 -6.33301 -77 -19c-77.333 -35.333 -116 -100.333 -116 -195c0 -61.333 18.667 -115.5 56 -162.5s87 -76.167 149 -87.5l15 -3zM695.999 -128v1277h-108v-1277h108z" />
    <glyph glyph-name="periodcentered" unicode="&#xb7;" horiz-adv-x="285" 
d="M238 602c0 -28.667 -10.167 -53.167 -30.5 -73.5s-44.833 -30.5 -73.5 -30.5s-53.167 10.167 -73.5 30.5s-30.5 44.833 -30.5 73.5s10.167 53.167 30.5 73.5s44.833 30.5 73.5 30.5s53.167 -10.167 73.5 -30.5s30.5 -44.833 30.5 -73.5z" />
    <glyph glyph-name="periodcentered" unicode="&#x2219;" horiz-adv-x="285" 
d="M238 602c0 -28.667 -10.167 -53.167 -30.5 -73.5s-44.833 -30.5 -73.5 -30.5s-53.167 10.167 -73.5 30.5s-30.5 44.833 -30.5 73.5s10.167 53.167 30.5 73.5s44.833 30.5 73.5 30.5s53.167 -10.167 73.5 -30.5s30.5 -44.833 30.5 -73.5z" />
    <glyph glyph-name="ordmasculine" unicode="&#xba;" horiz-adv-x="783" 
d="M746 904c0 -90 -30 -164.667 -90 -224c-62.667 -62 -145.667 -93 -249 -93c-106.667 0 -193.334 28.5 -260.001 85.5s-100 134.167 -100 231.5c0 87.333 33.833 159.666 101.5 216.999s148.834 86 243.501 86c100 0 184 -28.167 252 -84.5s102 -129.166 102 -218.499z
M733 499h-689v53h689v-53zM667 901c0 76 -27.667 136.667 -83 182c-51.333 42 -115 63 -191 63s-138 -19.333 -186 -58c-54 -43.333 -81 -105 -81 -185c0 -77.333 25.167 -139 75.5 -185s117.833 -69 202.5 -69c78 0 141.333 24 190 72s73 108 73 180z" />
    <glyph glyph-name="guillemotright" unicode="&#xbb;" horiz-adv-x="892" 
d="M841 391l-348 -271v181l245 175l-251 179v172l354 -262v-174zM397 391l-348 -271v181l246 175l-251 179v172l353 -262v-174z" />
    <glyph glyph-name="questiondown" unicode="&#xbf;" horiz-adv-x="801" 
d="M487 799c0 -28.667 -10.167 -53.167 -30.5 -73.5s-44.833 -30.5 -73.5 -30.5s-53.167 10.167 -73.5 30.5s-30.5 44.833 -30.5 73.5s10.167 53.167 30.5 73.5s44.833 30.5 73.5 30.5s53.167 -10.167 73.5 -30.5s30.5 -44.833 30.5 -73.5zM793 -167l-22 -19.999l-40 43
c-29.333 -44 -79.333 -86.667 -150 -128c-67.333 -39.333 -135.333 -59 -204 -59c-95.333 0 -171.333 25.333 -228 76c-59.333 52.667 -89 125.667 -89 219c0 42 15 88.667 45 140c21.333 36 52 77 92 123l76 86c12.667 16.667 22 34.5 28 53.5s9 51.167 9 96.5v66h-48v30
h234v-30h-52v-67c0 -40 -2.83301 -72.5 -8.5 -97.5s-14.834 -48.167 -27.501 -69.5c-20 -34.667 -58.333 -86.334 -115 -155.001c-42 -50.667 -69.333 -98.667 -82 -144c-4.66699 -16 -7 -32.333 -7 -49c0 -44.667 18.333 -81.667 55 -111c34 -26.667 73.667 -40 119 -40
c10.667 0 21.667 1 33 3c49.333 8.66699 95.333 27.667 138 57c56.667 39.333 87.334 70 92.001 92l-42 43l22 21z" />
    <glyph glyph-name="Agrave" unicode="&#xc0;" horiz-adv-x="1348" 
d="M1313 0h-273v30h50l-132 308h-583l-136 -308h47v-30h-253v30h52l508 1147h-52v30h256v-30h-52l516 -1147h52v-30zM898 468l-231 570l-242 -570h473zM852 1276h-140l-160 320h300v-320z" />
    <glyph glyph-name="Aacute" unicode="&#xc1;" horiz-adv-x="1344" 
d="M1313 0h-273v30h50l-132 308h-583l-136 -308h47v-30h-253v30h52l508 1147h-52v30h256v-30h-52l516 -1147h52v-30zM898 468l-231 570l-242 -570h473zM821 1592l-160 -320h-140v320h300z" />
    <glyph glyph-name="Acircumflex" unicode="&#xc2;" horiz-adv-x="1351" 
d="M1313 0h-273v30h50l-132 308h-583l-136 -308h47v-30h-253v30h52l508 1147h-52v30h256v-30h-52l516 -1147h52v-30zM898 468l-231 570l-242 -570h473zM1002 1272h-149l-186 164l-192 -164h-149l342 319z" />
    <glyph glyph-name="Atilde" unicode="&#xc3;" horiz-adv-x="1337" 
d="M1313 0h-273v30h50l-132 308h-583l-136 -308h47v-30h-253v30h52l508 1147h-52v30h256v-30h-52l516 -1147h52v-30zM898 468l-231 570l-242 -570h473zM1101 1503c-4 -34.667 -21.001 -72.667 -51.001 -114c-33.333 -46 -69 -75.667 -107 -89
c-25.333 -8.66699 -51 -13 -77 -13c-20 0 -40.833 2.33301 -62.5 7s-44.5 11 -68.5 19l-135 46c-26.667 8.66699 -45 14 -55 16c-20 4.66699 -35.333 7 -46 7c-20.667 0 -38.167 -4.83301 -52.5 -14.5s-27.5 -28.5 -39.5 -56.5c-4 -9.33301 -8.33301 -22.666 -13 -39.999
l-145 38c4 34.667 21 72.667 51 114c33.333 46 69.333 76 108 90c24 9.33301 50.667 14 80 14c20 0 40.5 -2.33301 61.5 -7s43.167 -11.334 66.5 -20.001l125 -47c20 -7.33301 38.833 -13.5 56.5 -18.5s33.834 -7.5 48.501 -7.5c21.333 0 40 5.33301 56 16
s30 30.334 42 59.001c4 9.33301 8.33301 22.666 13 39.999z" />
    <glyph glyph-name="Adieresis" unicode="&#xc4;" horiz-adv-x="1336" 
d="M1313 0h-273v30h50l-132 308h-583l-136 -308h47v-30h-253v30h52l508 1147h-52v30h256v-30h-52l516 -1147h52v-30zM898 468l-231 570l-242 -570h473zM908 1390c0 -29.333 -10.333 -54.333 -31 -75s-46 -31 -76 -31c-29.333 0 -54.5 10.167 -75.5 30.5
s-31.5 45.5 -31.5 75.5s10.333 55.333 31 76s46 31 76 31s55.333 -10.333 76 -31s31 -46 31 -76zM635 1390c0 -29.333 -10.333 -54.333 -31 -75s-46 -31 -76 -31c-29.333 0 -54.5 10.167 -75.5 30.5s-31.5 45.5 -31.5 75.5s10.333 55.333 31 76s46 31 76 31
s55.333 -10.333 76 -31s31 -46 31 -76z" />
    <glyph glyph-name="Aring" unicode="&#xc5;" horiz-adv-x="1336" 
d="M804 1434c0 -38 -13.5 -70.5 -40.5 -97.5s-59.5 -40.5 -97.5 -40.5s-70.5 13.5 -97.5 40.5s-40.5 59.5 -40.5 97.5s13.5 70.5 40.5 97.5s59.5 40.5 97.5 40.5s70.5 -13.5 97.5 -40.5s40.5 -59.5 40.5 -97.5zM732 1434c0 18.667 -6.33301 34.334 -19 47.001
s-28.334 19 -47.001 19s-34.334 -6.33301 -47.001 -19s-19 -28.334 -19 -47.001s6.33301 -34.334 19 -47.001s28.334 -19 47.001 -19s34.334 6.33301 47.001 19s19 28.334 19 47.001zM1313 0h-273v30h50l-132 308h-583l-136 -308h47v-30h-253v30h52l508 1147h-52v30h256v-30
h-52l516 -1147h52v-30zM898 468l-231 570l-242 -570h473z" />
    <glyph glyph-name="AE" unicode="&#xc6;" horiz-adv-x="2156" 
d="M2088 -52h-30v52h-1022v30h54v308h-583l-261 -308h47v-30h-253v30h52l977 1147h-52v30h1041v52h30v-248h-30v52h-826v-368h560v52h30v-248h-30v52h-560v-407h826v52h30v-248zM1085 468v570l-474 -570h474z" />
    <glyph glyph-name="Ccedilla" unicode="&#xc7;" horiz-adv-x="1390" 
d="M1365 202l-24.002 -17.999l-32 39l-69 -61c-60.667 -46.667 -127 -84.667 -199 -114c-101.333 -41.333 -206 -62 -314 -62c-215.333 0 -385.333 60.667 -510 182c-116 113.333 -174 258.666 -174 435.999s70.333 325.333 211 444c135.333 114.667 298.333 172 489 172
c90 0 178.667 -12.667 266 -38c64.667 -18.667 124.334 -42.667 179.001 -72c24 -12.667 47.333 -27 70 -43l26 42l26 -15l-127 -213l-26 16l27 45c-21.333 18 -43.333 34 -66 48c-44.667 27.333 -93.667 49 -147 65c-72.667 22 -150 33 -232 33
c-147.333 0 -273.333 -44.333 -378 -133c-108 -91.333 -162 -205.666 -162 -342.999c0 -146 51.333 -264.667 154 -356c100.667 -89.333 229.334 -134 386.001 -134c90.667 0 176.334 17.667 257.001 53c60 26 114.667 60 164 102
c25.333 21.333 45.666 41.666 60.999 60.999l-33 41l24 19zM791.998 -63.999l-88 -184h-104l20 184h172z" />
    <glyph glyph-name="Egrave" unicode="&#xc8;" horiz-adv-x="1157" 
d="M1101 -52h-30v52h-1022v30h52v1147h-52v30h1022v52h30v-248h-30v52h-826v-368h560v52h30v-248h-30v52h-560v-407h826v52h30v-248zM773 1272h-140l-160 320h300v-320z" />
    <glyph glyph-name="Eacute" unicode="&#xc9;" horiz-adv-x="1138" 
d="M1082 -52h-30v52h-1022v30h52v1147h-52v30h1022v52h30v-248h-30v52h-826v-368h560v52h30v-248h-30v52h-560v-407h826v52h30v-248zM752 1596l-160 -320h-140v320h300z" />
    <glyph glyph-name="Ecircumflex" unicode="&#xca;" horiz-adv-x="1162" 
d="M1101 -52h-30v52h-1022v30h52v1147h-52v30h1022v52h30v-248h-30v52h-826v-368h560v52h30v-248h-30v52h-560v-407h826v52h30v-248zM904 1272h-149l-186 164l-192 -164h-149l342 319z" />
    <glyph glyph-name="Edieresis" unicode="&#xcb;" horiz-adv-x="1157" 
d="M1101 -52h-30v52h-1022v30h52v1147h-52v30h1022v52h30v-248h-30v52h-826v-368h560v52h30v-248h-30v52h-560v-407h826v52h30v-248zM835 1390c0 -29.333 -10.333 -54.333 -31 -75s-46 -31 -76 -31c-29.333 0 -54.5 10.167 -75.5 30.5s-31.5 45.5 -31.5 75.5
s10.333 55.333 31 76s46 31 76 31s55.333 -10.333 76 -31s31 -46 31 -76zM562 1390c0 -29.333 -10.333 -54.333 -31 -75s-46 -31 -76 -31c-29.333 0 -54.5 10.167 -75.5 30.5s-31.5 45.5 -31.5 75.5s10.333 55.333 31 76s46 31 76 31s55.333 -10.333 76 -31s31 -46 31 -76z
" />
    <glyph glyph-name="Igrave" unicode="&#xcc;" horiz-adv-x="404" 
d="M318 0h-248v30h52v1147h-52v30h248v-30h-52v-1147h52v-30zM322 1276h-140l-160 320h300v-320z" />
    <glyph glyph-name="Iacute" unicode="&#xcd;" horiz-adv-x="409" 
d="M326 0h-248v30h52v1147h-52v30h248v-30h-52v-1147h52v-30zM366 1596l-160 -320h-140v320h300z" />
    <glyph glyph-name="Icircumflex" unicode="&#xce;" horiz-adv-x="406" 
d="M333 0h-248v30h52v1147h-52v30h248v-30h-52v-1147h52v-30zM551 1272h-149l-186 164l-192 -164h-149l342 319z" />
    <glyph glyph-name="Idieresis" unicode="&#xcf;" horiz-adv-x="409" 
d="M326 0h-248v30h52v1147h-52v30h248v-30h-52v-1147h52v-30zM452 1388c0 -29.333 -10.333 -54.333 -31 -75s-46 -31 -76 -31c-29.333 0 -54.5 10.167 -75.5 30.5s-31.5 45.5 -31.5 75.5s10.333 55.333 31 76s46 31 76 31s55.333 -10.333 76 -31s31 -46 31 -76zM179 1388
c0 -29.333 -10.333 -54.333 -31 -75s-46 -31 -76 -31c-29.333 0 -54.5 10.167 -75.5 30.5s-31.5 45.5 -31.5 75.5s10.333 55.333 31 76s46 31 76 31s55.333 -10.333 76 -31s31 -46 31 -76z" />
    <glyph glyph-name="Ntilde" unicode="&#xd1;" horiz-adv-x="1294" 
d="M1107 1516c-4 -34.667 -21.001 -72.667 -51.001 -114c-33.333 -46 -69 -75.667 -107 -89c-25.333 -8.66699 -51 -13 -77 -13c-20 0 -40.833 2.33301 -62.5 7s-44.5 11 -68.5 19l-135 46c-26.667 8.66699 -45 14 -55 16c-20 4.66699 -35.333 7 -46 7
c-20.667 0 -38.167 -4.83301 -52.5 -14.5s-27.5 -28.5 -39.5 -56.5c-4 -9.33301 -8.33301 -22.666 -13 -39.999l-145 38c4 34.667 21 72.667 51 114c33.333 46 69.333 76 108 90c24 9.33301 50.667 14 80 14c20 0 40.5 -2.33301 61.5 -7s43.167 -11.334 66.5 -20.001
l125 -47c20 -7.33301 38.833 -13.5 56.5 -18.5s33.834 -7.5 48.501 -7.5c21.333 0 40 5.33301 56 16s30 30.334 42 59.001c4 9.33301 8.33301 22.666 13 39.999zM1255 0h-248v30h52l-824 915v-915h52v-30h-248v30h52v1147h-52v30h248v-30h-52l824 -902v902h-52v30h248v-30
h-52v-1147h52v-30z" />
    <glyph glyph-name="Ograve" unicode="&#xd2;" 
d="M1437 620c0 -180.667 -62 -330.334 -186 -449.001c-128.667 -123.333 -297 -185 -505 -185c-199.333 0 -365.333 56.667 -498 170c-139.333 118.667 -209 273.334 -209 464.001c0 175.333 68 319.5 204 432.5s303.667 169.5 503 169.5c185.333 0 345 -55 479 -165
c141.333 -116 212 -261.667 212 -437zM1279 614c0 156.667 -56.001 278.999 -168.001 366.999c-99.333 78 -221 117 -365 117c-149.333 0 -274.666 -38 -375.999 -114c-115.333 -86.667 -173 -208 -173 -364c0 -151.333 51.833 -274.166 155.5 -368.499
s235.834 -141.5 396.501 -141.5c157.333 0 285.666 48.667 384.999 146c96.667 94.667 145 214 145 358zM891.999 1277h-140l-160 320h300v-320z" />
    <glyph glyph-name="Oacute" unicode="&#xd3;" 
d="M1437 620c0 -180.667 -62 -330.334 -186 -449.001c-128.667 -123.333 -297 -185 -505 -185c-199.333 0 -365.333 56.667 -498 170c-139.333 118.667 -209 273.334 -209 464.001c0 175.333 68 319.5 204 432.5s303.667 169.5 503 169.5c185.333 0 345 -55 479 -165
c141.333 -116 212 -261.667 212 -437zM1279 614c0 156.667 -56.001 278.999 -168.001 366.999c-99.333 78 -221 117 -365 117c-149.333 0 -274.666 -38 -375.999 -114c-115.333 -86.667 -173 -208 -173 -364c0 -151.333 51.833 -274.166 155.5 -368.499
s235.834 -141.5 396.501 -141.5c157.333 0 285.666 48.667 384.999 146c96.667 94.667 145 214 145 358zM890.999 1597l-160 -320h-140v320h300z" />
    <glyph glyph-name="Ocircumflex" unicode="&#xd4;" 
d="M1437 620c0 -180.667 -62 -330.334 -186 -449.001c-128.667 -123.333 -297 -185 -505 -185c-199.333 0 -365.333 56.667 -498 170c-139.333 118.667 -209 273.334 -209 464.001c0 175.333 68 319.5 204 432.5s303.667 169.5 503 169.5c185.333 0 345 -55 479 -165
c141.333 -116 212 -261.667 212 -437zM1279 614c0 156.667 -56.001 278.999 -168.001 366.999c-99.333 78 -221 117 -365 117c-149.333 0 -274.666 -38 -375.999 -114c-115.333 -86.667 -173 -208 -173 -364c0 -151.333 51.833 -274.166 155.5 -368.499
s235.834 -141.5 396.501 -141.5c157.333 0 285.666 48.667 384.999 146c96.667 94.667 145 214 145 358zM1071 1272h-149l-186 164l-192 -164h-149l342 319z" />
    <glyph glyph-name="Otilde" unicode="&#xd5;" 
d="M1437 620c0 -180.667 -62 -330.334 -186 -449.001c-128.667 -123.333 -297 -185 -505 -185c-199.333 0 -365.333 56.667 -498 170c-139.333 118.667 -209 273.334 -209 464.001c0 175.333 68 319.5 204 432.5s303.667 169.5 503 169.5c185.333 0 345 -55 479 -165
c141.333 -116 212 -261.667 212 -437zM1279 614c0 156.667 -56.001 278.999 -168.001 366.999c-99.333 78 -221 117 -365 117c-149.333 0 -274.666 -38 -375.999 -114c-115.333 -86.667 -173 -208 -173 -364c0 -151.333 51.833 -274.166 155.5 -368.499
s235.834 -141.5 396.501 -141.5c157.333 0 285.666 48.667 384.999 146c96.667 94.667 145 214 145 358zM1189 1516c-4 -34.667 -21.001 -72.667 -51.001 -114c-33.333 -46 -69 -75.667 -107 -89c-25.333 -8.66699 -51 -13 -77 -13c-20 0 -40.833 2.33301 -62.5 7
s-44.5 11 -68.5 19l-135 46c-26.667 8.66699 -45 14 -55 16c-20 4.66699 -35.333 7 -46 7c-20.667 0 -38.167 -4.83301 -52.5 -14.5s-27.5 -28.5 -39.5 -56.5c-4 -9.33301 -8.33301 -22.666 -13 -39.999l-145 38c4 34.667 21 72.667 51 114c33.333 46 69.333 76 108 90
c24 9.33301 50.667 14 80 14c20 0 40.5 -2.33301 61.5 -7s43.167 -11.334 66.5 -20.001l125 -47c20 -7.33301 38.833 -13.5 56.5 -18.5s33.834 -7.5 48.501 -7.5c21.333 0 40 5.33301 56 16s30 30.334 42 59.001c4 9.33301 8.33301 22.666 13 39.999z" />
    <glyph glyph-name="Odieresis" unicode="&#xd6;" 
d="M1447 620c0 -180.667 -62 -330.334 -186 -449.001c-128.667 -123.333 -297 -185 -505 -185c-199.333 0 -365.333 56.667 -498 170c-139.333 118.667 -209 273.334 -209 464.001c0 175.333 68 319.5 204 432.5s303.667 169.5 503 169.5c185.333 0 345 -55 479 -165
c141.333 -116 212 -261.667 212 -437zM1289 614c0 156.667 -56.001 278.999 -168.001 366.999c-99.333 78 -221 117 -365 117c-149.333 0 -274.666 -38 -375.999 -114c-115.333 -86.667 -173 -208 -173 -364c0 -151.333 51.833 -274.166 155.5 -368.499
s235.834 -141.5 396.501 -141.5c157.333 0 285.666 48.667 384.999 146c96.667 94.667 145 214 145 358zM1007 1404c0 -29.333 -10.333 -54.333 -31 -75s-46 -31 -76 -31c-29.333 0 -54.5 10.167 -75.5 30.5s-31.5 45.5 -31.5 75.5s10.333 55.333 31 76s46 31 76 31
s55.333 -10.333 76 -31s31 -46 31 -76zM733.999 1404c0 -29.333 -10.333 -54.333 -31 -75s-46 -31 -76 -31c-29.333 0 -54.5 10.167 -75.5 30.5s-31.5 45.5 -31.5 75.5s10.333 55.333 31 76s46 31 76 31s55.333 -10.333 76 -31s31 -46 31 -76z" />
    <glyph glyph-name=".null" unicode="&#xd7;" horiz-adv-x="0" 
 />
    <glyph glyph-name=".null" unicode="&#x141;" horiz-adv-x="0" 
 />
    <glyph glyph-name=".null" unicode="&#xfd;" horiz-adv-x="0" 
 />
    <glyph glyph-name="Oslash" unicode="&#xd8;" 
d="M1437 620c0 -180.667 -61.333 -330.333 -184 -449c-128 -123.333 -295.667 -185 -503 -185c-123.333 0 -237.333 23.333 -342 70l-56 -73h51v-32h-263v32h73l97 126c-85.333 54.667 -151.333 125 -198 211c-48.667 89.333 -73 189.333 -73 300c0 174 69 318.667 207 434
c133.333 112 294.333 168 483 168c68 0 133.833 -7.33301 197.5 -22s122.5 -35.667 176.5 -63l57 74h-55v32h273v-32h-74l-104 -133c74 -54 131.333 -119.333 172 -196c43.333 -80.667 65 -168 65 -262zM1279 614.001c0 76 -14.168 143.5 -42.501 202.5
s-68.166 110.167 -119.499 153.5l-626 -808c79.333 -34.667 166.666 -52 261.999 -52c156.667 0 284.334 48.667 383.001 146c95.333 94 143 213.333 143 358zM1022 1032c-86 44 -183 66.002 -291 66.002c-148.667 0 -271.667 -38.333 -369 -115
c-110 -86.667 -165 -208.334 -165 -365.001c0 -84.667 17.167 -161.334 51.5 -230.001s82.833 -125.667 145.5 -171z" />
    <glyph glyph-name="Ugrave" unicode="&#xd9;" horiz-adv-x="1248" 
d="M1195 1177l-52 0.00292969v-795c0 -54.667 -4.66699 -99 -14 -133c-12.667 -46.667 -36.834 -89.834 -72.501 -129.501s-93.5 -71.834 -173.5 -96.501s-165.333 -37 -256 -37c-96.667 0 -182 9.66699 -256 29c-86 22.667 -151.333 57 -196 103
c-32.667 34 -54.834 70.833 -66.501 110.5s-17.5 87.5 -17.5 143.5v805h-52v30h248v-30h-52v-797c0 -50 5 -89 15 -117c13.333 -36.667 37.333 -65.667 72 -87s79.167 -37.333 133.5 -48s111.5 -16 171.5 -16c62.667 0 121.834 6.66699 177.501 20s96.5 30.666 122.5 51.999
c28.667 23.333 48.334 52 59.001 86c8.66699 28 13 64.667 13 110v797h-52v30h248v-30zM759 1272h-140l-160 320h300v-320z" />
    <glyph glyph-name="Uacute" unicode="&#xda;" horiz-adv-x="1248" 
d="M1195 1177l-52 0.00292969v-795c0 -54.667 -4.66699 -99 -14 -133c-12.667 -46.667 -36.834 -89.834 -72.501 -129.501s-93.5 -71.834 -173.5 -96.501s-165.333 -37 -256 -37c-96.667 0 -182 9.66699 -256 29c-86 22.667 -151.333 57 -196 103
c-32.667 34 -54.834 70.833 -66.501 110.5s-17.5 87.5 -17.5 143.5v805h-52v30h248v-30h-52v-797c0 -50 5 -89 15 -117c13.333 -36.667 37.333 -65.667 72 -87s79.167 -37.333 133.5 -48s111.5 -16 171.5 -16c62.667 0 121.834 6.66699 177.501 20s96.5 30.666 122.5 51.999
c28.667 23.333 48.334 52 59.001 86c8.66699 28 13 64.667 13 110v797h-52v30h248v-30zM793 1592l-160 -320h-140v320h300z" />
    <glyph glyph-name="Ucircumflex" unicode="&#xdb;" horiz-adv-x="1248" 
d="M1195 1177l-52 0.00292969v-795c0 -54.667 -4.66699 -99 -14 -133c-12.667 -46.667 -36.834 -89.834 -72.501 -129.501s-93.5 -71.834 -173.5 -96.501s-165.333 -37 -256 -37c-96.667 0 -182 9.66699 -256 29c-86 22.667 -151.333 57 -196 103
c-32.667 34 -54.834 70.833 -66.501 110.5s-17.5 87.5 -17.5 143.5v805h-52v30h248v-30h-52v-797c0 -50 5 -89 15 -117c13.333 -36.667 37.333 -65.667 72 -87s79.167 -37.333 133.5 -48s111.5 -16 171.5 -16c62.667 0 121.834 6.66699 177.501 20s96.5 30.666 122.5 51.999
c28.667 23.333 48.334 52 59.001 86c8.66699 28 13 64.667 13 110v797h-52v30h248v-30zM955 1272h-149l-186 164l-192 -164h-149l342 319z" />
    <glyph glyph-name="Udieresis" unicode="&#xdc;" horiz-adv-x="1235" 
d="M1195 1177l-52 0.00292969v-795c0 -54.667 -4.66699 -99 -14 -133c-12.667 -46.667 -36.834 -89.834 -72.501 -129.501s-93.5 -71.834 -173.5 -96.501s-165.333 -37 -256 -37c-96.667 0 -182 9.66699 -256 29c-86 22.667 -151.333 57 -196 103
c-32.667 34 -54.834 70.833 -66.501 110.5s-17.5 87.5 -17.5 143.5v805h-52v30h248v-30h-52v-797c0 -50 5 -89 15 -117c13.333 -36.667 37.333 -65.667 72 -87s79.167 -37.333 133.5 -48s111.5 -16 171.5 -16c62.667 0 121.834 6.66699 177.501 20s96.5 30.666 122.5 51.999
c28.667 23.333 48.334 52 59.001 86c8.66699 28 13 64.667 13 110v797h-52v30h248v-30zM877 1391c0 -29.333 -10.333 -54.333 -31 -75s-46 -31 -76 -31c-29.333 0 -54.5 10.167 -75.5 30.5s-31.5 45.5 -31.5 75.5s10.333 55.333 31 76s46 31 76 31s55.333 -10.333 76 -31
s31 -46 31 -76zM604 1391c0 -29.333 -10.333 -54.333 -31 -75s-46 -31 -76 -31c-29.333 0 -54.5 10.167 -75.5 30.5s-31.5 45.5 -31.5 75.5s10.333 55.333 31 76s46 31 76 31s55.333 -10.333 76 -31s31 -46 31 -76z" />
    <glyph glyph-name="germandbls" unicode="&#xdf;" horiz-adv-x="1195" 
d="M1059 340c0 -117.333 -41.668 -204.667 -125.001 -262c-75.333 -52 -182.333 -78 -321 -78h-156v-53h-30v238h30v-53h162c82 0 148.667 22.667 200 68c45.333 40 68 86.667 68 140c0 44.667 -19.667 83 -59 115l-111 75c-40.667 30 -61 63 -61 99c0 26 21.667 67 65 123
s65 104.333 65 145c0 56.667 -17.667 100.667 -53 132s-85.666 47 -150.999 47h-226c-43.333 0 -65 -22.333 -65 -67v-979h52v-30h-248v30h52v979c0 70 16.167 120.5 48.5 151.5s85.833 46.5 160.5 46.5h229c114 0 202.333 -26.667 265 -80s94 -128 94 -224
c0 -50 -13.333 -101 -40 -153c-14.667 -28.667 -37.667 -63.667 -69 -105c59.333 -34 104.333 -66.667 135 -98c59.333 -60.667 89 -129.667 89 -207z" />
    <glyph glyph-name="agrave" unicode="&#xe0;" horiz-adv-x="1337" 
d="M1313 0h-273v30h50l-132 308h-583l-136 -308h47v-30h-253v30h52l508 1147h-52v30h256v-30h-52l516 -1147h52v-30zM898 468l-231 570l-242 -570h473zM828 1276h-140l-160 320h300v-320z" />
    <glyph glyph-name="aacute" unicode="&#xe1;" horiz-adv-x="1337" 
d="M1313 0h-273v30h50l-132 308h-583l-136 -308h47v-30h-253v30h52l508 1147h-52v30h256v-30h-52l516 -1147h52v-30zM898 468l-231 570l-242 -570h473zM835 1596l-160 -320h-140v320h300z" />
    <glyph glyph-name="acircumflex" unicode="&#xe2;" horiz-adv-x="1336" 
d="M1305 0h-273v30h50l-132 308h-583l-136 -308h47v-30h-253v30h52l508 1147h-52v30h256v-30h-52l516 -1147h52v-30zM890 468l-231 570l-242 -570h473zM1003 1280h-149l-186 164l-192 -164h-149l342 319z" />
    <glyph glyph-name="atilde" unicode="&#xe3;" horiz-adv-x="1354" 
d="M1127 1503c-4 -34.667 -21.001 -72.667 -51.001 -114c-33.333 -46 -69 -75.667 -107 -89c-25.333 -8.66699 -51 -13 -77 -13c-20 0 -40.833 2.33301 -62.5 7s-44.5 11 -68.5 19l-135 46c-26.667 8.66699 -45 14 -55 16c-20 4.66699 -35.333 7 -46 7
c-20.667 0 -38.167 -4.83301 -52.5 -14.5s-27.5 -28.5 -39.5 -56.5c-4 -9.33301 -8.33301 -22.666 -13 -39.999l-145 38c4 34.667 21 72.667 51 114c33.333 46 69.333 76 108 90c24 9.33301 50.667 14 80 14c20 0 40.5 -2.33301 61.5 -7s43.167 -11.334 66.5 -20.001
l125 -47c20 -7.33301 38.833 -13.5 56.5 -18.5s33.834 -7.5 48.501 -7.5c21.333 0 40 5.33301 56 16s30 30.334 42 59.001c4 9.33301 8.33301 22.666 13 39.999zM1313 0h-273v30h50l-132 308h-583l-136 -308h47v-30h-253v30h52l508 1147h-52v30h256v-30h-52l516 -1147h52
v-30zM897.999 468l-231 570l-242 -570h473z" />
    <glyph glyph-name="adieresis" unicode="&#xe4;" horiz-adv-x="1340" 
d="M1313 0h-273v30h50l-132 308h-583l-136 -308h47v-30h-253v30h52l508 1147h-52v30h256v-30h-52l516 -1147h52v-30zM898 468l-231 570l-242 -570h473zM907 1390c0 -29.333 -10.333 -54.333 -31 -75s-46 -31 -76 -31c-29.333 0 -54.5 10.167 -75.5 30.5
s-31.5 45.5 -31.5 75.5s10.333 55.333 31 76s46 31 76 31s55.333 -10.333 76 -31s31 -46 31 -76zM634 1390c0 -29.333 -10.333 -54.333 -31 -75s-46 -31 -76 -31c-29.333 0 -54.5 10.167 -75.5 30.5s-31.5 45.5 -31.5 75.5s10.333 55.333 31 76s46 31 76 31
s55.333 -10.333 76 -31s31 -46 31 -76z" />
    <glyph glyph-name="aring" unicode="&#xe5;" horiz-adv-x="1348" 
d="M804 1434c0 -38 -13.5 -70.5 -40.5 -97.5s-59.5 -40.5 -97.5 -40.5s-70.5 13.5 -97.5 40.5s-40.5 59.5 -40.5 97.5s13.5 70.5 40.5 97.5s59.5 40.5 97.5 40.5s70.5 -13.5 97.5 -40.5s40.5 -59.5 40.5 -97.5zM732 1434c0 18.667 -6.33301 34.334 -19 47.001
s-28.334 19 -47.001 19s-34.334 -6.33301 -47.001 -19s-19 -28.334 -19 -47.001s6.33301 -34.334 19 -47.001s28.334 -19 47.001 -19s34.334 6.33301 47.001 19s19 28.334 19 47.001zM1313 0h-273v30h50l-132 308h-583l-136 -308h47v-30h-253v30h52l508 1147h-52v30h256v-30
h-52l516 -1147h52v-30zM898 468l-231 570l-242 -570h473z" />
    <glyph glyph-name="ae" unicode="&#xe6;" horiz-adv-x="2142" 
d="M2088 -52h-30v52h-1022v30h54v308h-583l-261 -308h47v-30h-253v30h52l977 1147h-52v30h1041v52h30v-248h-30v52h-826v-368h560v52h30v-248h-30v52h-560v-407h826v52h30v-248zM1085 468v570l-474 -570h474z" />
    <glyph glyph-name="ccedilla" unicode="&#xe7;" horiz-adv-x="1410" 
d="M1365 202l-24.002 -17.999l-32 39l-69 -61c-60.667 -46.667 -127 -84.667 -199 -114c-101.333 -41.333 -206 -62 -314 -62c-215.333 0 -385.333 60.667 -510 182c-116 113.333 -174 258.666 -174 435.999s70.333 325.333 211 444c135.333 114.667 298.333 172 489 172
c90 0 178.667 -12.667 266 -38c64.667 -18.667 124.334 -42.667 179.001 -72c24 -12.667 47.333 -27 70 -43l26 42l26 -15l-127 -213l-26 16l27 45c-21.333 18 -43.333 34 -66 48c-44.667 27.333 -93.667 49 -147 65c-72.667 22 -150 33 -232 33
c-147.333 0 -273.333 -44.333 -378 -133c-108 -91.333 -162 -205.666 -162 -342.999c0 -146 51.333 -264.667 154 -356c100.667 -89.333 229.334 -134 386.001 -134c90.667 0 176.334 17.667 257.001 53c60 26 114.667 60 164 102
c25.333 21.333 45.666 41.666 60.999 60.999l-33 41l24 19zM791.998 -63.999l-88 -184h-104l20 184h172z" />
    <glyph glyph-name="egrave" unicode="&#xe8;" horiz-adv-x="1130" 
d="M1092 -52h-30v52h-1022v30h52v1147h-52v30h1022v52h30v-248h-30v52h-826v-368h560v52h30v-248h-30v52h-560v-407h826v52h30v-248zM779 1276h-140l-160 320h300v-320z" />
    <glyph glyph-name="eacute" unicode="&#xe9;" horiz-adv-x="1142" 
d="M1092 -52h-30v52h-1022v30h52v1147h-52v30h1022v52h30v-248h-30v52h-826v-368h560v52h30v-248h-30v52h-560v-407h826v52h30v-248zM771 1596l-160 -320h-140v320h300z" />
    <glyph glyph-name="ecircumflex" unicode="&#xea;" horiz-adv-x="1129" 
d="M1082 -52h-30v52h-1022v30h52v1147h-52v30h1022v52h30v-248h-30v52h-826v-368h560v52h30v-248h-30v52h-560v-407h826v52h30v-248zM919 1270h-149l-186 164l-192 -164h-149l342 319z" />
    <glyph glyph-name="edieresis" unicode="&#xeb;" horiz-adv-x="1138" 
d="M1082 -52h-30v52h-1022v30h52v1147h-52v30h1022v52h30v-248h-30v52h-826v-368h560v52h30v-248h-30v52h-560v-407h826v52h30v-248zM816 1391c0 -29.333 -10.333 -54.333 -31 -75s-46 -31 -76 -31c-29.333 0 -54.5 10.167 -75.5 30.5s-31.5 45.5 -31.5 75.5
s10.333 55.333 31 76s46 31 76 31s55.333 -10.333 76 -31s31 -46 31 -76zM543 1391c0 -29.333 -10.333 -54.333 -31 -75s-46 -31 -76 -31c-29.333 0 -54.5 10.167 -75.5 30.5s-31.5 45.5 -31.5 75.5s10.333 55.333 31 76s46 31 76 31s55.333 -10.333 76 -31s31 -46 31 -76z
" />
    <glyph glyph-name="igrave" unicode="&#xec;" horiz-adv-x="404" 
d="M318 0h-248v30h52v1147h-52v30h248v-30h-52v-1147h52v-30zM322 1276h-140l-160 320h300v-320z" />
    <glyph glyph-name="iacute" unicode="&#xed;" horiz-adv-x="409" 
d="M326 0h-248v30h52v1147h-52v30h248v-30h-52v-1147h52v-30zM366 1596l-160 -320h-140v320h300z" />
    <glyph glyph-name="icircumflex" unicode="&#xee;" horiz-adv-x="406" 
d="M333 0h-248v30h52v1147h-52v30h248v-30h-52v-1147h52v-30zM551 1272h-149l-186 164l-192 -164h-149l342 319z" />
    <glyph glyph-name="idieresis" unicode="&#xef;" horiz-adv-x="409" 
d="M326 0h-248v30h52v1147h-52v30h248v-30h-52v-1147h52v-30zM452 1388c0 -29.333 -10.333 -54.333 -31 -75s-46 -31 -76 -31c-29.333 0 -54.5 10.167 -75.5 30.5s-31.5 45.5 -31.5 75.5s10.333 55.333 31 76s46 31 76 31s55.333 -10.333 76 -31s31 -46 31 -76zM179 1388
c0 -29.333 -10.333 -54.333 -31 -75s-46 -31 -76 -31c-29.333 0 -54.5 10.167 -75.5 30.5s-31.5 45.5 -31.5 75.5s10.333 55.333 31 76s46 31 76 31s55.333 -10.333 76 -31s31 -46 31 -76z" />
    <glyph glyph-name="ntilde" unicode="&#xf1;" horiz-adv-x="1294" 
d="M1106 1506c-4 -34.667 -21.001 -72.667 -51.001 -114c-33.333 -46 -69 -75.667 -107 -89c-25.333 -8.66699 -51 -13 -77 -13c-20 0 -40.833 2.33301 -62.5 7s-44.5 11 -68.5 19l-135 46c-26.667 8.66699 -45 14 -55 16c-20 4.66699 -35.333 7 -46 7
c-20.667 0 -38.167 -4.83301 -52.5 -14.5s-27.5 -28.5 -39.5 -56.5c-4 -9.33301 -8.33301 -22.666 -13 -39.999l-145 38c4 34.667 21 72.667 51 114c33.333 46 69.333 76 108 90c24 9.33301 50.667 14 80 14c20 0 40.5 -2.33301 61.5 -7s43.167 -11.334 66.5 -20.001
l125 -47c20 -7.33301 38.833 -13.5 56.5 -18.5s33.834 -7.5 48.501 -7.5c21.333 0 40 5.33301 56 16s30 30.334 42 59.001c4 9.33301 8.33301 22.666 13 39.999zM1255 0h-248v30h52l-824 915v-915h52v-30h-248v30h52v1147h-52v30h248v-30h-52l824 -902v902h-52v30h248v-30
h-52v-1147h52v-30z" />
    <glyph glyph-name="ograve" unicode="&#xf2;" 
d="M1437 620c0 -180.667 -62 -330.334 -186 -449.001c-128.667 -123.333 -297 -185 -505 -185c-199.333 0 -365.333 56.667 -498 170c-139.333 118.667 -209 273.334 -209 464.001c0 175.333 68 319.5 204 432.5s303.667 169.5 503 169.5c185.333 0 345 -55 479 -165
c141.333 -116 212 -261.667 212 -437zM1279 614c0 156.667 -56.001 278.999 -168.001 366.999c-99.333 78 -221 117 -365 117c-149.333 0 -274.666 -38 -375.999 -114c-115.333 -86.667 -173 -208 -173 -364c0 -151.333 51.833 -274.166 155.5 -368.499
s235.834 -141.5 396.501 -141.5c157.333 0 285.666 48.667 384.999 146c96.667 94.667 145 214 145 358zM908.999 1289h-140l-160 320h300v-320z" />
    <glyph glyph-name="oacute" unicode="&#xf3;" 
d="M1446 620c0 -180.667 -62 -330.334 -186 -449.001c-128.667 -123.333 -297 -185 -505 -185c-199.333 0 -365.333 56.667 -498 170c-139.333 118.667 -209 273.334 -209 464.001c0 175.333 68 319.5 204 432.5s303.667 169.5 503 169.5c185.333 0 345 -55 479 -165
c141.333 -116 212 -261.667 212 -437zM1288 614c0 156.667 -56.001 278.999 -168.001 366.999c-99.333 78 -221 117 -365 117c-149.333 0 -274.666 -38 -375.999 -114c-115.333 -86.667 -173 -208 -173 -364c0 -151.333 51.833 -274.166 155.5 -368.499
s235.834 -141.5 396.501 -141.5c157.333 0 285.666 48.667 384.999 146c96.667 94.667 145 214 145 358zM933.999 1609l-160 -320h-140v320h300z" />
    <glyph glyph-name="ocircumflex" unicode="&#xf4;" 
d="M1447 620c0 -180.667 -62 -330.334 -186 -449.001c-128.667 -123.333 -297 -185 -505 -185c-199.333 0 -365.333 56.667 -498 170c-139.333 118.667 -209 273.334 -209 464.001c0 175.333 68 319.5 204 432.5s303.667 169.5 503 169.5c185.333 0 345 -55 479 -165
c141.333 -116 212 -261.667 212 -437zM1289 614c0 156.667 -56.001 278.999 -168.001 366.999c-99.333 78 -221 117 -365 117c-149.333 0 -274.666 -38 -375.999 -114c-115.333 -86.667 -173 -208 -173 -364c0 -151.333 51.833 -274.166 155.5 -368.499
s235.834 -141.5 396.501 -141.5c157.333 0 285.666 48.667 384.999 146c96.667 94.667 145 214 145 358zM1085 1275h-149l-186 164l-192 -164h-149l342 319z" />
    <glyph glyph-name="otilde" unicode="&#xf5;" 
d="M1168 1506c-4 -34.667 -21.001 -72.667 -51.001 -114c-33.333 -46 -69 -75.667 -107 -89c-25.333 -8.66699 -51 -13 -77 -13c-20 0 -40.833 2.33301 -62.5 7s-44.5 11 -68.5 19l-135 46c-26.667 8.66699 -45 14 -55 16c-20 4.66699 -35.333 7 -46 7
c-20.667 0 -38.167 -4.83301 -52.5 -14.5s-27.5 -28.5 -39.5 -56.5c-4 -9.33301 -8.33301 -22.666 -13 -39.999l-145 38c4 34.667 21 72.667 51 114c33.333 46 69.333 76 108 90c24 9.33301 50.667 14 80 14c20 0 40.5 -2.33301 61.5 -7s43.167 -11.334 66.5 -20.001
l125 -47c20 -7.33301 38.833 -13.5 56.5 -18.5s33.834 -7.5 48.501 -7.5c21.333 0 40 5.33301 56 16s30 30.334 42 59.001c4 9.33301 8.33301 22.666 13 39.999zM1445 612c0 -180.667 -62 -330.334 -186 -449.001c-128.667 -123.333 -297 -185 -505 -185
c-199.333 0 -365.333 56.667 -498 170c-139.333 118.667 -209 273.334 -209 464.001c0 175.333 68 319.5 204 432.5s303.667 169.5 503 169.5c185.333 0 345 -55 479 -165c141.333 -116 212 -261.667 212 -437zM1287 606c0 156.667 -56.001 278.999 -168.001 366.999
c-99.333 78 -221 117 -365 117c-149.333 0 -274.666 -38 -375.999 -114c-115.333 -86.667 -173 -208 -173 -364c0 -151.333 51.833 -274.166 155.5 -368.499s235.834 -141.5 396.501 -141.5c157.333 0 285.666 48.667 384.999 146c96.667 94.667 145 214 145 358z" />
    <glyph glyph-name="odieresis" unicode="&#xf6;" 
d="M1437 620c0 -180.667 -62 -330.334 -186 -449.001c-128.667 -123.333 -297 -185 -505 -185c-199.333 0 -365.333 56.667 -498 170c-139.333 118.667 -209 273.334 -209 464.001c0 175.333 68 319.5 204 432.5s303.667 169.5 503 169.5c185.333 0 345 -55 479 -165
c141.333 -116 212 -261.667 212 -437zM1279 614c0 156.667 -56.001 278.999 -168.001 366.999c-99.333 78 -221 117 -365 117c-149.333 0 -274.666 -38 -375.999 -114c-115.333 -86.667 -173 -208 -173 -364c0 -151.333 51.833 -274.166 155.5 -368.499
s235.834 -141.5 396.501 -141.5c157.333 0 285.666 48.667 384.999 146c96.667 94.667 145 214 145 358zM997.999 1388c0 -29.333 -10.333 -54.333 -31 -75s-46 -31 -76 -31c-29.333 0 -54.5 10.167 -75.5 30.5s-31.5 45.5 -31.5 75.5s10.333 55.333 31 76s46 31 76 31
s55.333 -10.333 76 -31s31 -46 31 -76zM724.999 1388c0 -29.333 -10.333 -54.333 -31 -75s-46 -31 -76 -31c-29.333 0 -54.5 10.167 -75.5 30.5s-31.5 45.5 -31.5 75.5s10.333 55.333 31 76s46 31 76 31s55.333 -10.333 76 -31s31 -46 31 -76z" />
    <glyph glyph-name="divide" unicode="&#xf7;" horiz-adv-x="1117" 
d="M548 588c-34.667 0 -61.667 10.833 -81 32.5s-29 47.5 -29 77.5c0 30.667 9.5 56.667 28.5 78s46.167 32 81.5 32c34.667 0 61.667 -10.833 81 -32.5s29 -47.5 29 -77.5c0 -30.667 -9 -56 -27 -76c-20 -22.667 -47.667 -34 -83 -34zM1073 368h-1030l-1 117h1030zM548 48
c-34.667 0 -61.667 10.833 -81 32.5s-29 47.5 -29 77.5c0 30.667 9.5 56.667 28.5 78s46.167 32 81.5 32c34.667 0 61.667 -10.833 81 -32.5s29 -47.5 29 -77.5c0 -30.667 -9 -56 -27 -76c-20 -22.667 -47.667 -34 -83 -34z" />
    <glyph glyph-name="oslash" unicode="&#xf8;" 
d="M1437 620c0 -180.667 -61.333 -330.333 -184 -449c-128 -123.333 -295.667 -185 -503 -185c-123.333 0 -237.333 23.333 -342 70l-56 -73h51v-32h-263v32h73l97 126c-85.333 54.667 -151.333 125 -198 211c-48.667 89.333 -73 189.333 -73 300c0 174 69 318.667 207 434
c133.333 112 294.333 168 483 168c68 0 133.833 -7.33301 197.5 -22s122.5 -35.667 176.5 -63l57 74h-55v32h273v-32h-74l-104 -133c74 -54 131.333 -119.333 172 -196c43.333 -80.667 65 -168 65 -262zM1279 614.001c0 76 -14.168 143.5 -42.501 202.5
s-68.166 110.167 -119.499 153.5l-626 -808c79.333 -34.667 166.666 -52 261.999 -52c156.667 0 284.334 48.667 383.001 146c95.333 94 143 213.333 143 358zM1022 1032c-86 44 -183 66.002 -291 66.002c-148.667 0 -271.667 -38.333 -369 -115
c-110 -86.667 -165 -208.334 -165 -365.001c0 -84.667 17.167 -161.334 51.5 -230.001s82.833 -125.667 145.5 -171z" />
    <glyph glyph-name="ugrave" unicode="&#xf9;" horiz-adv-x="1242" 
d="M1195 1177l-52 0.00292969v-795c0 -54.667 -4.66699 -99 -14 -133c-12.667 -46.667 -36.834 -89.834 -72.501 -129.501s-93.5 -71.834 -173.5 -96.501s-165.333 -37 -256 -37c-96.667 0 -182 9.66699 -256 29c-86 22.667 -151.333 57 -196 103
c-32.667 34 -54.834 70.833 -66.501 110.5s-17.5 87.5 -17.5 143.5v805h-52v30h248v-30h-52v-797c0 -50 5 -89 15 -117c13.333 -36.667 37.333 -65.667 72 -87s79.167 -37.333 133.5 -48s111.5 -16 171.5 -16c62.667 0 121.834 6.66699 177.501 20s96.5 30.666 122.5 51.999
c28.667 23.333 48.334 52 59.001 86c8.66699 28 13 64.667 13 110v797h-52v30h248v-30zM782 1271h-140l-160 320h300v-320z" />
    <glyph glyph-name="uacute" unicode="&#xfa;" horiz-adv-x="1246" 
d="M1195 1177l-52 0.00292969v-795c0 -54.667 -4.66699 -99 -14 -133c-12.667 -46.667 -36.834 -89.834 -72.501 -129.501s-93.5 -71.834 -173.5 -96.501s-165.333 -37 -256 -37c-96.667 0 -182 9.66699 -256 29c-86 22.667 -151.333 57 -196 103
c-32.667 34 -54.834 70.833 -66.501 110.5s-17.5 87.5 -17.5 143.5v805h-52v30h248v-30h-52v-797c0 -50 5 -89 15 -117c13.333 -36.667 37.333 -65.667 72 -87s79.167 -37.333 133.5 -48s111.5 -16 171.5 -16c62.667 0 121.834 6.66699 177.501 20s96.5 30.666 122.5 51.999
c28.667 23.333 48.334 52 59.001 86c8.66699 28 13 64.667 13 110v797h-52v30h248v-30zM795 1591l-160 -320h-140v320h300z" />
    <glyph glyph-name="ucircumflex" unicode="&#xfb;" horiz-adv-x="1235" 
d="M1195 1177l-52 0.00292969v-795c0 -54.667 -4.66699 -99 -14 -133c-12.667 -46.667 -36.834 -89.834 -72.501 -129.501s-93.5 -71.834 -173.5 -96.501s-165.333 -37 -256 -37c-96.667 0 -182 9.66699 -256 29c-86 22.667 -151.333 57 -196 103
c-32.667 34 -54.834 70.833 -66.501 110.5s-17.5 87.5 -17.5 143.5v805h-52v30h248v-30h-52v-797c0 -50 5 -89 15 -117c13.333 -36.667 37.333 -65.667 72 -87s79.167 -37.333 133.5 -48s111.5 -16 171.5 -16c62.667 0 121.834 6.66699 177.501 20s96.5 30.666 122.5 51.999
c28.667 23.333 48.334 52 59.001 86c8.66699 28 13 64.667 13 110v797h-52v30h248v-30zM955 1272h-149l-186 164l-192 -164h-149l342 319z" />
    <glyph glyph-name="udieresis" unicode="&#xfc;" horiz-adv-x="1240" 
d="M1195 1177l-52 0.00292969v-795c0 -54.667 -4.66699 -99 -14 -133c-12.667 -46.667 -36.834 -89.834 -72.501 -129.501s-93.5 -71.834 -173.5 -96.501s-165.333 -37 -256 -37c-96.667 0 -182 9.66699 -256 29c-86 22.667 -151.333 57 -196 103
c-32.667 34 -54.834 70.833 -66.501 110.5s-17.5 87.5 -17.5 143.5v805h-52v30h248v-30h-52v-797c0 -50 5 -89 15 -117c13.333 -36.667 37.333 -65.667 72 -87s79.167 -37.333 133.5 -48s111.5 -16 171.5 -16c62.667 0 121.834 6.66699 177.501 20s96.5 30.666 122.5 51.999
c28.667 23.333 48.334 52 59.001 86c8.66699 28 13 64.667 13 110v797h-52v30h248v-30zM871 1388c0 -29.333 -10.333 -54.333 -31 -75s-46 -31 -76 -31c-29.333 0 -54.5 10.167 -75.5 30.5s-31.5 45.5 -31.5 75.5s10.333 55.333 31 76s46 31 76 31s55.333 -10.333 76 -31
s31 -46 31 -76zM598 1388c0 -29.333 -10.333 -54.333 -31 -75s-46 -31 -76 -31c-29.333 0 -54.5 10.167 -75.5 30.5s-31.5 45.5 -31.5 75.5s10.333 55.333 31 76s46 31 76 31s55.333 -10.333 76 -31s31 -46 31 -76z" />
    <glyph glyph-name="ydieresis" unicode="&#xff;" horiz-adv-x="1340" 
d="M1307 1171h-53l-488 -640v-507h52v-30h-248v30h52v507l-544 640h-48v30h278v-30h-39l431 -515l393 515h-39v30h253v-30zM937 1387c0 -29.333 -10.333 -54.333 -31 -75s-46 -31 -76 -31c-29.333 0 -54.5 10.167 -75.5 30.5s-31.5 45.5 -31.5 75.5s10.333 55.333 31 76
s46 31 76 31s55.333 -10.333 76 -31s31 -46 31 -76zM664 1387c0 -29.333 -10.333 -54.333 -31 -75s-46 -31 -76 -31c-29.333 0 -54.5 10.167 -75.5 30.5s-31.5 45.5 -31.5 75.5s10.333 55.333 31 76s46 31 76 31s55.333 -10.333 76 -31s31 -46 31 -76z" />
    <glyph glyph-name="OE" unicode="&#x152;" horiz-adv-x="2348" 
d="M2301 -52l-29.999 -0.000976562v52h-1022v30h52v182c-61.333 -71.333 -138.333 -126.833 -231 -166.5s-197 -59.5 -313 -59.5c-199.333 0 -366 56.667 -500 170c-140.667 118.667 -211 273.334 -211 464.001c0 174 69 318.667 207 434c133.333 112 294.333 168 483 168
c116.667 0 223.667 -19.833 321 -59.5s178.666 -96.5 243.999 -170.5v185h-52v30h1022v52h30v-248h-30v52h-826v-368h560v52h30v-248h-30v52h-560v-407h826v52h30v-248zM1286 613.999c0 152 -55.668 272.668 -167.001 362.001c-101.333 81.333 -228.333 122 -381 122
c-148.667 0 -271.667 -38.333 -369 -115c-110 -86.667 -165 -208.334 -165 -365.001c0 -150.667 52.333 -273 157 -367s237.667 -141 399 -141c156.667 0 284.334 48.667 383.001 146c95.333 94 143 213.333 143 358z" />
    <glyph glyph-name="oe" unicode="&#x153;" horiz-adv-x="2352" 
d="M2301 -52l-29.999 -0.000976562v52h-1022v30h52v182c-61.333 -71.333 -138.333 -126.833 -231 -166.5s-197 -59.5 -313 -59.5c-199.333 0 -366 56.667 -500 170c-140.667 118.667 -211 273.334 -211 464.001c0 174 69 318.667 207 434c133.333 112 294.333 168 483 168
c116.667 0 223.667 -19.833 321 -59.5s178.666 -96.5 243.999 -170.5v185h-52v30h1022v52h30v-248h-30v52h-826v-368h560v52h30v-248h-30v52h-560v-407h826v52h30v-248zM1286 613.999c0 152 -55.668 272.668 -167.001 362.001c-101.333 81.333 -228.333 122 -381 122
c-148.667 0 -271.667 -38.333 -369 -115c-110 -86.667 -165 -208.334 -165 -365.001c0 -150.667 52.333 -273 157 -367s237.667 -141 399 -141c156.667 0 284.334 48.667 383.001 146c95.333 94 143 213.333 143 358z" />
    <glyph glyph-name="Ydieresis" unicode="&#x178;" horiz-adv-x="1351" 
d="M1311 1177h-53l-488 -640v-507h52v-30h-248v30h52v507l-544 640h-48v30h278v-30h-39l431 -515l393 515h-39v30h253v-30zM920 1390c0 -29.333 -10.333 -54.333 -31 -75s-46 -31 -76 -31c-29.333 0 -54.5 10.167 -75.5 30.5s-31.5 45.5 -31.5 75.5s10.333 55.333 31 76
s46 31 76 31s55.333 -10.333 76 -31s31 -46 31 -76zM647 1390c0 -29.333 -10.333 -54.333 -31 -75s-46 -31 -76 -31c-29.333 0 -54.5 10.167 -75.5 30.5s-31.5 45.5 -31.5 75.5s10.333 55.333 31 76s46 31 76 31s55.333 -10.333 76 -31s31 -46 31 -76z" />
    <glyph glyph-name="florin" unicode="&#x192;" horiz-adv-x="766" 
d="M725 1245c-16 -40.667 -45.3311 -60.998 -87.998 -60.998c-9.33301 0 -19 4.33301 -29 13c-13.333 11.333 -22.5 18.333 -27.5 21s-10.167 4 -15.5 4c-24 0 -42.667 -62.333 -56 -187c-8.66699 -80 -17 -136.333 -25 -169l-8 -34h166l-8 -69h-177l-102 -506
c-14.667 -75.333 -31.334 -142.666 -50.001 -201.999c-28 -90.667 -59.667 -162.667 -95 -216c-44.667 -68 -92.667 -102 -144 -102c-12.667 0 -25.667 1.83301 -39 5.5s-24.833 11.667 -34.5 24s-14.5 25.166 -14.5 38.499c0 5.33301 1 10.666 3 15.999
c6 18.667 16 33.667 30 45s30.333 17 49 17c14.667 0 26.167 -7.33301 34.5 -22s16.166 -23.334 23.499 -26.001c34.667 -10 64.667 46 90 168l34 177l116 584h-183l4 70h206l9 45c16 78 33.667 145 53 201c25.333 72.667 53.333 129.667 84 171c36 48 75 72 117 72
c18.667 0 36.5 -6.5 53.5 -19.5s25.5 -27.833 25.5 -44.5c0 -6 -0.666992 -10.667 -2 -14z" />
    <glyph glyph-name="summation" unicode="&#x3a3;" horiz-adv-x="1221" 
d="M1189 177c-11.333 -33.333 -21.001 -65.3311 -29.001 -95.998s-15.167 -64.667 -21.5 -102s-10.833 -68.333 -13.5 -93s-4 -52.334 -4 -83.001l-121 23h-967l599 660l-589 736l110 -10h916l2 -270h-35c0 32 -4.83301 59.5 -14.5 82.5s-25.667 44.5 -48 64.5
s-45.333 32.5 -69 37.5s-56.167 7.5 -97.5 7.5h-494l476 -573l-510 -572h680c21.333 0 40.5 3.16699 57.5 9.5s35.167 16.833 54.5 31.5c26.667 20 46.834 41.667 60.501 65s20.5 50.666 20.5 81.999h37z" />
    <glyph glyph-name="Omega" unicode="&#x3a9;" horiz-adv-x="1269" 
d="M1234 -3l-495.999 0.000976562l24 246c78.667 35.333 138 88 178 158c38 66.667 57 146 57 238c0 116 -21.667 202.667 -65 260c-55.333 73.333 -151.333 110 -288 110c-126 0 -219.667 -36.667 -281 -110c-52.667 -63.333 -79 -150 -79 -260c0 -92 18.667 -171 56 -237
c40 -70.667 99.667 -123.667 179 -159l24 -246h-496v259h32c0 -12.667 1.16699 -23.334 3.5 -32.001s6.5 -17.667 12.5 -27c9.33301 -15.333 21.166 -26.166 35.499 -32.499s31.833 -9.5 52.5 -9.5h272v50c-108.667 18.667 -196.334 68.5 -263.001 149.5
s-100 176.833 -100 287.5c0 130 52.333 233 157 309c100.667 72.667 231.667 109 393 109c168.667 0 301.834 -36.667 399.501 -110s146.5 -176 146.5 -308c0 -111.333 -33.167 -207.166 -99.5 -287.499s-153.833 -130.166 -262.5 -149.499v-50h271
c20 0 37.333 3.16699 52 9.5s27 17.166 37 32.499c6.66699 9.33301 11 18.166 13 26.499s3 19.166 3 32.499h32v-259z" />
    <glyph glyph-name="pi" unicode="&#x3c0;" horiz-adv-x="1008" 
d="M975 285l-4.99902 -39.0039c-8.66699 -69.333 -33 -126.666 -73 -171.999c-44 -49.333 -97.333 -74 -160 -74c-55.333 0 -96.333 28.333 -123 85c-22 46.667 -33 107.667 -33 183v34.5c0 9.66699 1.33301 24.834 4 45.501l42 389h-211l-73 -574
c-6 -45.333 -18.333 -84 -37 -116c-22.667 -38.667 -50 -58 -82 -58c-5.33301 0 -13.333 1.33301 -24 4c-20.667 5.33301 -36.667 12.333 -48 21c-14.667 10.667 -23.5 22.834 -26.5 36.501s-4.5 24.5 -4.5 32.5c0 22.667 9 44.334 27 65.001c53.333 62 81.333 96 84 102
l19 44c6.66699 15.333 10.667 30.333 12 45l42 391h-59c-14.667 0 -28.834 -0.166992 -42.501 -0.5s-27.5 -3.5 -41.5 -9.5c-22 -8.66699 -42.667 -24.667 -62 -48c-15.333 -18 -25.333 -34 -30 -48l-30 11l11 26c30 67.333 47.667 105.333 53 114
c22 36 51.333 63.333 88 82c20 10 38.833 17 56.5 21s38.167 6 61.5 6h653v-147h-237l-24 -433c0 -40 10 -74.667 30 -104c22.667 -32.667 51.667 -49 87 -49c28.667 0 53 9.66699 73 29s33.333 44.333 40 75l8 30h35z" />
    <glyph glyph-name="endash" unicode="&#x2013;" horiz-adv-x="784" 
d="M743 508h-699v143h699v-143z" />
    <glyph glyph-name="emdash" unicode="&#x2014;" horiz-adv-x="1278" 
d="M1234 505h-1198v146h1198v-146z" />
    <glyph glyph-name="quoteleft" unicode="&#x2018;" horiz-adv-x="294" 
d="M254 966c0 -30.667 -10.332 -55.999 -30.999 -75.999s-44.667 -30 -72 -30c-34 0 -61 12.333 -81 37s-30 58 -30 100c0 61.333 19 117.333 57 168c12.667 16.667 31.667 35.667 57 57l35 -27c-12 -14.667 -20.667 -26.334 -26 -35.001c-18 -27.333 -27 -50 -27 -68
c0 -12.667 9.16699 -21 27.5 -25s30.5 -7.66699 36.5 -11c17.333 -10.667 30.666 -23.5 39.999 -38.5s14 -32.167 14 -51.5z" />
    <glyph glyph-name="quoteright" unicode="&#x2019;" horiz-adv-x="306" 
d="M256 1070c0 -61.333 -19.001 -117.334 -57.001 -168.001c-12.667 -16.667 -31.667 -35.667 -57 -57l-35 27c12 14.667 20.667 26.334 26 35.001c18 27.333 27 50 27 68c0 10 -4.33301 17 -13 21c-17.333 4.66699 -34.333 9.66699 -51 15
c-17.333 10.667 -30.666 23.5 -39.999 38.5s-14 32.167 -14 51.5c0 30.667 10.333 56 31 76s44.667 30 72 30c34 0 61 -12.333 81 -37s30 -58 30 -100z" />
    <glyph glyph-name="quotesinglbase" unicode="&#x201a;" horiz-adv-x="300" 
d="M256 59c0 -61.333 -19.001 -117.334 -57.001 -168.001c-12.667 -16.667 -31.667 -35.667 -57 -57l-35 27c12 14.667 20.667 26.334 26 35.001c18 27.333 27 50 27 68c0 12.667 -9.16699 21 -27.5 25s-30.5 7.66699 -36.5 11c-17.333 10.667 -30.666 23.5 -39.999 38.5
s-14 32.167 -14 51.5c0 30.667 10.333 56 31 76s44.667 30 72 30c34 0 61 -12.333 81 -37s30 -58 30 -100z" />
    <glyph glyph-name="quotedblleft" unicode="&#x201c;" horiz-adv-x="552" 
d="M516 966c0 -30.667 -10.332 -55.999 -30.999 -75.999s-44.667 -30 -72 -30c-34 0 -61 12.333 -81 37s-30 58 -30 100c0 61.333 19 117.333 57 168c12.667 16.667 31.667 35.667 57 57l35 -27c-12 -14.667 -20.667 -26.334 -26 -35.001c-18 -27.333 -27 -50 -27 -68
c0 -12.667 9.16699 -21 27.5 -25s30.5 -7.66699 36.5 -11c17.333 -10.667 30.666 -23.5 39.999 -38.5s14 -32.167 14 -51.5zM254.001 966.001c0 -30.667 -10.332 -55.999 -30.999 -75.999s-44.667 -30 -72 -30c-34 0 -61 12.333 -81 37s-30 58 -30 100
c0 61.333 19 117.333 57 168c12.667 16.667 31.667 35.667 57 57l35 -27c-12 -14.667 -20.667 -26.334 -26 -35.001c-18 -27.333 -27 -50 -27 -68c0 -12.667 9.16699 -21 27.5 -25s30.5 -7.66699 36.5 -11c17.333 -10.667 30.666 -23.5 39.999 -38.5s14 -32.167 14 -51.5z
" />
    <glyph glyph-name="quotedblright" unicode="&#x201d;" horiz-adv-x="552" 
d="M518 1070c0 -61.333 -19.001 -117.334 -57.001 -168.001c-12.667 -16.667 -31.667 -35.667 -57 -57l-35 27c12 14.667 20.667 26.334 26 35.001c18 27.333 27 50 27 68c0 10 -4.33301 17 -13 21c-17.333 4.66699 -34.333 9.66699 -51 15
c-17.333 10.667 -30.666 23.5 -39.999 38.5s-14 32.167 -14 51.5c0 30.667 10.333 56 31 76s44.667 30 72 30c34 0 61 -12.333 81 -37s30 -58 30 -100zM255.999 1070c0 -61.333 -19.001 -117.334 -57.001 -168.001c-12.667 -16.667 -31.667 -35.667 -57 -57l-35 27
c12 14.667 20.667 26.334 26 35.001c18 27.333 27 50 27 68c0 10 -4.33301 17 -13 21c-17.333 4.66699 -34.333 9.66699 -51 15c-17.333 10.667 -30.666 23.5 -39.999 38.5s-14 32.167 -14 51.5c0 30.667 10.333 56 31 76s44.667 30 72 30c34 0 61 -12.333 81 -37
s30 -58 30 -100z" />
    <glyph glyph-name="quotedblbase" unicode="&#x201e;" horiz-adv-x="576" 
d="M532 59c0 -61.333 -19.001 -117.334 -57.001 -168.001c-12.667 -16.667 -31.667 -35.667 -57 -57l-35 27c12 14.667 20.667 26.334 26 35.001c18 27.333 27 50 27 68c0 12.667 -9.16699 21 -27.5 25s-30.5 7.66699 -36.5 11c-17.333 10.667 -30.666 23.5 -39.999 38.5
s-14 32.167 -14 51.5c0 30.667 10.333 56 31 76s44.667 30 72 30c34 0 61 -12.333 81 -37s30 -58 30 -100zM255.999 58.999c0 -61.333 -19.001 -117.334 -57.001 -168.001c-12.667 -16.667 -31.667 -35.667 -57 -57l-35 27c12 14.667 20.667 26.334 26 35.001
c18 27.333 27 50 27 68c0 12.667 -9.16699 21 -27.5 25s-30.5 7.66699 -36.5 11c-17.333 10.667 -30.666 23.5 -39.999 38.5s-14 32.167 -14 51.5c0 30.667 10.333 56 31 76s44.667 30 72 30c34 0 61 -12.333 81 -37s30 -58 30 -100z" />
    <glyph glyph-name="dagger" unicode="&#x2020;" horiz-adv-x="830" 
d="M789 678l-8.99805 0.000976562c-26 3.33301 -53.667 6.16602 -83 8.49902s-52 3.5 -68 3.5c-20 0 -42.333 0.333008 -67 1s-49.334 1.66699 -74.001 3h-10v-19v-300c0 -45.333 1.33301 -100.333 4 -165s5.66699 -128 9 -190v-21h-11h-65h-65h-13v21
c3.33301 62 6.33301 129.333 9 202s4 123.667 4 153v300v19h-9c-1.33301 0 -19.666 -0.5 -54.999 -1.5l-87 -2.5c-23.333 0 -47.666 -1.33301 -72.999 -4l-78 -8h-9v6l2.5 20c1 8 1.5 22 1.5 42c0 9.33301 -0.666992 21.666 -2 36.999s-2 24 -2 26v7h9
c22.667 -3.33301 47.667 -6.16602 75 -8.49902s51.666 -3.5 72.999 -3.5h141h11v23l-5 151c0 35.333 -2.33301 79.333 -7 132c-1.33301 17.333 -4.33301 45 -9 83l-1 17l11 -1c7.33301 -0.666992 18.666 -1.16699 33.999 -1.5s31 -0.5 47 -0.5h33
c17.333 0 30.666 0.666992 39.999 2l11 1v-17c-4 -40 -7.83301 -80.333 -11.5 -121s-5.5 -72 -5.5 -94l-5 -151v-23h11h141c28 0 53.667 1.16699 77 3.5s47 5.16602 71 8.49902h9v-7c0 -2 -0.666992 -10.667 -2 -26s-2 -27.666 -2 -36.999
c0 -16.667 0.333008 -29.167 1 -37.5s1.66699 -16.5 3 -24.5v-6z" />
    <glyph glyph-name="bullet" unicode="&#x2022;" horiz-adv-x="380" 
d="M360 588c0 -46.667 -16.333 -86.334 -49 -119.001s-72.334 -49 -119.001 -49s-86.334 16.333 -119.001 49s-49 72.334 -49 119.001s16.333 86.334 49 119.001s72.334 49 119.001 49s86.334 -16.333 119.001 -49s49 -72.334 49 -119.001z" />
    <glyph glyph-name="ellipsis" unicode="&#x2026;" horiz-adv-x="1152" 
d="M1091 92c0 -28.667 -10.167 -53.167 -30.5 -73.5s-44.833 -30.5 -73.5 -30.5s-53.167 10.167 -73.5 30.5s-30.5 44.833 -30.5 73.5s10.167 53.167 30.5 73.5s44.833 30.5 73.5 30.5s53.167 -10.167 73.5 -30.5s30.5 -44.833 30.5 -73.5zM671 92
c0 -28.667 -10.167 -53.167 -30.5 -73.5s-44.833 -30.5 -73.5 -30.5s-53.167 10.167 -73.5 30.5s-30.5 44.833 -30.5 73.5s10.167 53.167 30.5 73.5s44.833 30.5 73.5 30.5s53.167 -10.167 73.5 -30.5s30.5 -44.833 30.5 -73.5zM251 92
c0 -28.667 -10.167 -53.167 -30.5 -73.5s-44.833 -30.5 -73.5 -30.5s-53.167 10.167 -73.5 30.5s-30.5 44.833 -30.5 73.5s10.167 53.167 30.5 73.5s44.833 30.5 73.5 30.5s53.167 -10.167 73.5 -30.5s30.5 -44.833 30.5 -73.5z" />
    <glyph glyph-name="trademark" unicode="&#x2122;" horiz-adv-x="1379" 
d="M1341 1181l-9.99707 0.00292969c-14 0 -26.167 -0.666992 -36.5 -2s-18 -5 -23 -11s-7.83301 -10.333 -8.5 -13c-2 -5.33301 -3 -13.333 -3 -24v-446c0 -14.667 4 -26 12 -34c5.33301 -6.66699 12.5 -10.5 21.5 -11.5s17.5 -1.83301 25.5 -2.5l21 -1v-25h-14
c-4.66699 0 -21.167 0.833008 -49.5 2.5s-46.833 2.5 -55.5 2.5c-20 0 -39.167 -0.666992 -57.5 -2s-34.833 -2.33301 -49.5 -3h-15v26l24 2c11.333 0 20 0.666992 26 2s11.667 4.66602 17 9.99902c8.66699 8.66699 13 20 13 34v416l-235 -499h-18l-234 496v-413
c0 -14.667 4 -26 12 -34c5.33301 -6.66699 12.666 -10.5 21.999 -11.5s18 -1.83301 26 -2.5l20 -1v-25h-14c-4.66699 0 -21.167 0.833008 -49.5 2.5s-46.833 2.5 -55.5 2.5c-12 0 -24.333 -0.666992 -37 -2s-24.334 -2.33301 -35.001 -3h-14v26l24 2
c10.667 0 19.167 0.666992 25.5 2s12.166 4.66602 17.499 9.99902c8 8 12 19.333 12 34v446c0 14 -1.33301 23.167 -4 27.5s-5 7.83301 -7 10.5c-2.66699 3.33301 -9.83398 6.16602 -21.501 8.49902s-24.167 3.5 -37.5 3.5h-9v26h14c2 0 10 -0.666992 24 -2s25.333 -2 34 -2
c12 0 25 0.333008 39 1s28.667 1.66699 44 3h10l224 -476l88 182l57 116l48 102l24 61l6 15h12c2 0 11.667 -0.5 29 -1.5l43 -2.5c10 0 20.833 0.333008 32.5 1s23.834 1.66699 36.501 3h9v-26zM535.003 1209l-5.00195 -141h-25l-7 55
c-1.33301 13.333 -4.66602 23 -9.99902 29s-12.666 9 -21.999 9l-135 2v-478c0 -9.33301 0.333008 -15.666 1 -18.999c1.33301 -5.33301 4.33301 -10.833 9 -16.5s11.667 -9 21 -10s18 -1.83301 26 -2.5l20 -1v-25h-13c-4.66699 0 -21.167 0.833008 -49.5 2.5
s-46.833 2.5 -55.5 2.5c-20 0 -38 -0.5 -54 -1.5l-54 -3.5h-14v26l24 2c10.667 0 19.167 0.666992 25.5 2s12.166 4.66602 17.499 9.99902c8.66699 8.66699 13 20 13 34v478l-133 -4c-8.66699 0 -15.167 -2.16699 -19.5 -6.5s-7.16602 -11.833 -8.49902 -22.5l-9 -62h-26
l-5 140h14c3.33301 -0.666992 36.333 -1.5 99 -2.5s106.667 -1.5 132 -1.5l228 4z" />
    <glyph glyph-name="partialdiff" unicode="&#x2202;" horiz-adv-x="836" 
d="M793 656c0 -168.667 -34.9971 -320.998 -104.997 -456.998c-78.667 -153.333 -179 -230 -301 -230h-17c-4.66699 0.666992 -8.33398 1 -11.001 1c-100 9.33301 -177.5 44 -232.5 104s-82.5 135.667 -82.5 227c0 98.667 32.167 185 96.5 259s144.166 111 239.499 111
c42 0 79.667 -6.66699 113 -20c26.667 -10.667 60 -30.334 100 -59.001l51 -36l14 85c5.33301 35.333 8 69.666 8 102.999c0 114.667 -23.667 211.667 -71 291c-53.333 90 -127 135 -221 135c-26.667 0 -54 -4.66699 -82 -14l-82 -28l-31 -9l-63 79l72 21
c32 9.33301 58.833 15.833 80.5 19.5s47.5 5.5 77.5 5.5c135.333 0 245.666 -62.333 330.999 -187c77.333 -113.333 116 -247 116 -401zM631.003 494.002l-45.999 43.999c-18 16.667 -35.333 29.667 -52 39s-33.834 15.666 -51.501 18.999s-33.5 5 -47.5 5
c-54 0 -103 -24 -147 -72c-39.333 -43.333 -68.333 -97.333 -87 -162c-10 -36 -15 -72.667 -15 -110c0 -57.333 11.667 -106.666 35 -147.999c26 -46 63.667 -76.333 113 -91c14.667 -4.66699 29.667 -7 45 -7c60 0 111.333 39.667 154 119
c32.667 60.667 57.667 138.334 75 233.001z" />
    <glyph glyph-name="Delta" unicode="&#x2206;" horiz-adv-x="1183" 
d="M1142 -1h-1102l588 1237zM923 80l-364 862l-405 -862h769z" />
    <glyph glyph-name="product" unicode="&#x220f;" horiz-adv-x="1409" 
d="M1366 -178h-528v31l44 2c24 0 42.667 1.66699 56 5s26.333 11.333 39 24c10 9.33301 16.833 20.166 20.5 32.499s5.5 26.166 5.5 41.499c0 8 -0.166992 15.333 -0.5 22s-0.5 12.667 -0.5 18v1115h-617v-1104c0 -41.333 3.33301 -70.166 10 -86.499s18 -30.5 34 -42.5
c14 -10 28 -16.333 42 -19s32.667 -4 56 -4h33v-35h-527v37h41c23.333 0 41.5 1.33301 54.5 4s25.833 9 38.5 19c18 14 29.333 33 34 57c2.66699 13.333 4 37 4 71v1005c0 48.667 -18 88.667 -54 120c-13.333 11.333 -26.333 20 -39 26s-26.667 9.66699 -42 11l-29 3v35
h1325v-38l-37 -1c-16 0 -29.5 -2.66699 -40.5 -8s-24.167 -14 -39.5 -26c-21.333 -17.333 -35.666 -37.666 -42.999 -60.999s-11 -52 -11 -86v-994c0 -28 2.16699 -50.5 6.5 -67.5s14.166 -32.5 29.499 -46.5c13.333 -12 27.333 -20.167 42 -24.5s32.667 -6.5 54 -6.5l39 -2
v-27z" />
    <glyph glyph-name="radical" unicode="&#x221a;" horiz-adv-x="853" 
d="M824 1354l-232 -1433l-383 756l-145 -75l-23 51l223 106l307 -604l201 1205z" />
    <glyph glyph-name="infinity" unicode="&#x221e;" horiz-adv-x="1322" 
d="M1281 438c0 -80 -25.998 -145.667 -77.998 -197c-49.333 -48.667 -108.333 -73 -177 -73c-44.667 0 -92.667 10.333 -144 31s-98 50.667 -140 90l-80 76l-80 -76c-42 -39.333 -88.5 -69.333 -139.5 -90s-99.167 -31 -144.5 -31c-68 0 -126.667 24 -176 72
c-52.667 51.333 -79 117.333 -79 198c0 69.333 25.667 128 77 176s112.666 72 183.999 72c43.333 0 86.5 -9.83301 129.5 -29.5s85.833 -48.5 128.5 -86.5l99 -90l101 90c42.667 37.333 85.667 66 129 86s86.666 30 129.999 30c70 0 130.833 -24.167 182.5 -72.5
s77.5 -106.833 77.5 -175.5zM1191 431c-4 46.667 -22.5 85.167 -55.5 115.5s-73.5 45.5 -121.5 45.5c-26 0 -50.833 -4.33301 -74.5 -13s-57.5 -29.667 -101.5 -63l-120 -90l111 -103c27.333 -25.333 55.333 -43.333 84 -54s62 -16 100 -16c53.333 0 96.333 17 129 51
s49 76.333 49 127zM607.002 426l-119.999 90c-35.333 26.667 -63 45 -83 55c-28.667 14 -60 21 -94 21c-48.667 0 -89.334 -15 -122.001 -45s-51 -68.667 -55 -116c0 -50.667 16.333 -93 49 -127s76 -51 130 -51c39.333 0 72.833 5.16699 100.5 15.5s55.167 28.5 82.5 54.5z
" />
    <glyph glyph-name="integral" unicode="&#x222b;" horiz-adv-x="467" 
d="M419 1335c-2.66699 -18 -10.835 -32.833 -24.502 -44.5s-29.834 -17.5 -48.501 -17.5c-10.667 0 -21.667 4.33301 -33 13c-14.667 11.333 -24.834 18.166 -30.501 20.499s-10.167 3.5 -13.5 3.5c-9.33301 0 -16 -7.16699 -20 -21.5s-6 -34.166 -6 -59.499
c0 -28.667 2.33301 -68.667 7 -120c10.667 -118 16 -190 16 -216v-523c0 -80.667 -2.66699 -148.334 -8 -203.001c-8.66699 -90 -24.667 -162 -48 -216c-28.667 -67.333 -67.667 -101 -117 -101c-5.33301 0 -11 0.333008 -17 1s-12.333 2 -19 4
c-17.333 5.33301 -32.333 14.666 -45 27.999c-15.333 16 -21.666 33 -18.999 51c1.33301 17.333 8 32 20 44s26.667 18 44 18c14 0 26.833 -7.33301 38.5 -22s21.834 -23 30.501 -25c18.667 -5.33301 31.334 5.33398 38.001 32.001s10 65.334 10 116.001
c0 30.667 -0.333008 55.667 -1 75c-2.66699 78 -4 118.667 -4 122v726c0 142.667 15.333 246.334 46 311.001c26 54.667 62.333 82 109 82c26.667 0 49.834 -7.33301 69.501 -22s28.167 -33.334 25.5 -56.001z" />
    <glyph glyph-name="approxequal" unicode="&#x2248;" horiz-adv-x="1071" 
d="M1042 649l-37.0029 -42.001c-32 -37.333 -65.667 -64.5 -101 -81.5s-77.333 -25.5 -126 -25.5c-30.667 0 -61.5 4.83301 -92.5 14.5l-92.5 29.5l-151 41l-63.5 17c-21.667 6 -40.5 9 -56.5 9h-22c-7.33301 -2 -12.666 -3.33301 -15.999 -4
c-28 -5.33301 -51.833 -13.666 -71.5 -24.999s-40.167 -28.333 -61.5 -51l-31 -32l-78 50l25 27c32.667 34.667 64.834 60.667 96.501 78s70.5 29.666 116.5 36.999c22 3.33301 36 5 42 5h15c21.333 0 44.333 -2.66699 69 -8c16 -3.33301 40.667 -10 74 -20l133 -41
c33.333 -12 57.333 -20.333 72 -25c24.667 -8 48 -12 70 -12c8.66699 0 15.334 0.333008 20.001 1c34 0 63.5 5.33301 88.5 16s49.167 28.334 72.5 53.001l33 35zM1042 355.999l-37.0039 -40.9971c-32 -38 -65.5 -65.5 -100.5 -82.5s-77.167 -25.5 -126.5 -25.5
c-29.333 0 -59.833 4.83301 -91.5 14.5l-93.5 29.5l-151 42l-63.5 17c-21.667 6 -40.5 9 -56.5 9h-22c-7.33301 -2 -12.666 -3.33301 -15.999 -4c-30 -6 -54 -14.333 -72 -25s-38.333 -28 -61 -52l-31 -32l-78 50l25 27c32.667 34.667 64.834 60.667 96.501 78
s70.5 29.666 116.5 36.999c22 3.33301 40.667 5 56 5c22.667 0 44.167 -2.33301 64.5 -7s46.833 -12 79.5 -22l133 -40c26.667 -8.66699 53.334 -16.834 80.001 -24.501s54 -11.5 82 -11.5c37.333 3.33301 67.833 9.66602 91.5 18.999s46.834 26 69.501 50l33 35z" />
    <glyph glyph-name="notequal" unicode="&#x2260;" horiz-adv-x="969" 
d="M930 276h-512l-150 -280l-86 48l128 232h-268v92h320l130 242h-448v90h498l158 288l80 -44l-132 -244h282v-90h-330l-130 -242h460v-92z" />
    <glyph glyph-name="lessequal" unicode="&#x2264;" horiz-adv-x="922" 
d="M888 206l-849 390v95l849 405v-106l-724 -352l724 -333v-99zM888 -2h-849v95h849v-95z" />
    <glyph glyph-name="greaterequal" unicode="&#x2265;" horiz-adv-x="941" 
d="M887 596l-848 -390v99l723 333l-723 352v106l848 -405v-95zM887 -2h-848v95h848v-95z" />
    <glyph glyph-name="lozenge" unicode="&#x25ca;" horiz-adv-x="815" 
d="M782 610l-314 -610h-104l-320 619l320 588h104zM688 610l-274 507l-273 -501l276 -540z" />
    <glyph glyph-name="nonmarkingreturn" horiz-adv-x="504" 
 />
  </font>
</defs>
</svg>
